<svg height="260" viewBox="0 0 1508 260" width="1508" xmlns="http://www.w3.org/2000/svg"><g fill="none" fill-rule="evenodd"><path d="m156 0v52h-52c0-28.718807 23.281193-52 52-52z" fill="#255f7c" opacity=".675874"/><path d="m468 52v52h-52c0-28.718807 23.281193-52 52-52z" fill="#255f7c" opacity=".391811"/><path d="m780 0v52h-52c0-28.718807 23.281193-52 52-52z" fill="#255f7c" opacity=".716332" transform="matrix(-1 0 0 -1 1508 52)"/><path d="m1092 208v52h-52c0-28.718807 23.28119-52 52-52z" fill="#255f7c" opacity=".391811"/><path d="m1092 52v52h-52c0-28.718807 23.28119-52 52-52z" fill="#fff" opacity=".391811"/><g fill="#255f7c"><path d="m1248 0v52h-52c0-28.718807 23.28119-52 52-52z" opacity=".716332"/><path d="m1508 156v52h-52c0-28.718807 23.28119-52 52-52z" opacity=".906436"/><path d="m1508 0v52h-52c0-28.718807 23.28119-52 52-52z" opacity=".415248" transform="matrix(-1 0 0 -1 2964 52)"/><path d="m260 156v52h-52c0-28.718807 23.281193-52 52-52z" opacity=".716332"/><path d="m572 208v52h-52c0-28.718807 23.281193-52 52-52z" opacity=".716332"/><path d="m728 156v52h-52c0-28.718807 23.281193-52 52-52z" opacity=".391811" transform="matrix(-1 0 0 -1 1404 364)"/><path d="m52 104v52h-52c0-28.718807 23.281193-52 52-52z" opacity=".716332" transform="matrix(0 1 -1 0 156 104)"/><path d="m364 104v52h-52c0-28.718807 23.281193-52 52-52z" opacity=".716332" transform="matrix(-1 0 0 -1 676 260)"/><path d="m676 104v52h-52c0-28.718807 23.281193-52 52-52z" opacity=".678385" transform="matrix(-1 0 0 -1 1300 260)"/><path d="m832 208v52h-52c0-28.718807 23.281193-52 52-52z" opacity=".391811" transform="matrix(-1 0 0 -1 1612 468)"/><path d="m988 52v52h-52c0-28.718807 23.281193-52 52-52z" opacity=".678385" transform="matrix(0 -1 1 0 884 1040)"/><path d="m1300 156v52h-52c0-28.718807 23.28119-52 52-52z" opacity=".524972" transform="matrix(-1 0 0 -1 2548 364)"/></g></g></svg>