<svg height="260" viewBox="0 0 1508 260" width="1508" xmlns="http://www.w3.org/2000/svg"><g fill="none" fill-rule="evenodd"><path d="m312 52v52h-52c0-28.718807 23.281193-52 52-52z" fill="#fff" opacity=".391811" transform="matrix(-1 0 0 -1 572 156)"/><path d="m936 156v52h-52c0-28.718807 23.281193-52 52-52z" fill="#fff" opacity=".391811" transform="matrix(0 -1 1 0 728 1092)"/><path d="m1404 0v52h-52c0-28.718807 23.28119-52 52-52z" fill="#ffab0f" opacity=".391811" transform="matrix(-1 0 0 -1 2756 52)"/><path d="m1508 104v52h-52c0-28.718807 23.28119-52 52-52z" fill="#ffab0f" opacity=".716332" transform="matrix(0 1 -1 0 1612 -1352)"/><path d="m104 156v52h-52c0-28.718807 23.281193-52 52-52z" fill="#fff" opacity=".236886" transform="matrix(-1 0 0 -1 156 364)"/><g fill="#ffab0f"><path d="m416 156v52h-52c0-28.718807 23.281193-52 52-52z" opacity=".524972" transform="matrix(-1 0 0 -1 780 364)"/><path d="m52 0v52h-52c0-28.718807 23.281193-52 52-52z" opacity=".391811" transform="matrix(-1 0 0 -1 52 52)"/><path d="m520 0v52h-52c0-28.718807 23.281193-52 52-52z" opacity=".391811" transform="matrix(-1 0 0 -1 988 52)"/><path d="m676 156v52h-52c0-28.718807 23.281193-52 52-52z" opacity=".60419"/><path d="m832 0v52h-52c0-28.718807 23.281193-52 52-52z" opacity=".391811" transform="matrix(-1 0 0 -1 1612 52)"/><path d="m1144 0v52h-52c0-28.718807 23.28119-52 52-52z" opacity=".716332"/></g><path d="m1300 208v52h-52c0-28.718807 23.28119-52 52-52z" fill="#fff" opacity=".391811" transform="matrix(-1 0 0 -1 2548 468)"/></g></svg>