<svg height="260" viewBox="0 0 1508 260" width="1508" xmlns="http://www.w3.org/2000/svg"><g fill="none" fill-rule="evenodd" transform="translate(156)"><g fill="#ffab0f"><path d="m468 156v52h-52c0-28.718807 23.281193-52 52-52z" opacity=".69973" transform="matrix(-1 0 0 -1 884 364)"/><path d="m936 156v52h-52c0-28.718807 23.281193-52 52-52z" opacity=".391811" transform="matrix(-1 0 0 -1 1820 364)"/><path d="m1248 156v52h-52c0-28.718807 23.28119-52 52-52z" opacity=".391811" transform="matrix(-1 0 0 -1 2444 364)"/><path d="m260 208v52h-52c0-28.718807 23.281193-52 52-52z" opacity=".716332"/><path d="m416 52v52h-52c0-28.718807 23.281193-52 52-52z" opacity=".686454"/><path d="m572 208v52h-52c0-28.718807 23.281193-52 52-52z" opacity=".391811"/><path d="m728 52v52h-52c0-28.718807 23.281193-52 52-52z" opacity=".678385"/><path d="m1040 104v52h-52c0-28.718807 23.28119-52 52-52z" opacity=".391811" transform="matrix(-1 0 0 -1 2028 260)"/><path d="m1196 52v52h-52c0-28.718807 23.28119-52 52-52z" opacity=".391811"/><path d="m52 0v52h-52c0-28.718807 23.281193-52 52-52z" opacity=".391811" transform="matrix(-1 0 0 -1 52 52)"/><path d="m52 156v52h-52c0-28.718807 23.281193-52 52-52z" opacity=".679339" transform="matrix(-1 0 0 -1 52 364)"/><path d="m208 0v52h-52c0-28.718807 23.281193-52 52-52z" opacity=".716332" transform="matrix(0 1 -1 0 208 -156)"/></g><path d="m520 0v52h-52c0-28.718807 23.281193-52 52-52z" fill="#fff" opacity=".245489"/></g></svg>