<svg height="260" viewBox="0 0 1508 260" width="1508" xmlns="http://www.w3.org/2000/svg"><g fill="none" fill-rule="evenodd"><path d="m312 0v52h-52c0-28.718807 23.281193-52 52-52z" fill="#ffab0f" opacity=".716332" transform="matrix(-1 0 0 -1 572 52)"/><path d="m780 52v52h-52c0-28.718807 23.281193-52 52-52z" fill="#ffab0f" opacity=".391811"/><path d="m936 104v52h-52c0-28.718807 23.281193-52 52-52z" fill="#ffab0f" opacity=".716332" transform="matrix(-1 0 0 -1 1820 260)"/><path d="m1092 0v52h-52c0-28.718807 23.28119-52 52-52z" fill="#ffab0f" opacity=".716332" transform="matrix(0 1 -1 0 1092 -1040)"/><path d="m1248 52v52h-52c0-28.718807 23.28119-52 52-52z" fill="#fff" opacity=".415248" transform="matrix(-1 0 0 -1 2444 156)"/><g><path d="m104 104v52h-52c0-28.718807 23.281193-52 52-52z" fill="#ffab0f" opacity=".391811"/><path d="m572 156v52h-52c0-28.718807 23.281193-52 52-52z" fill="#fff" opacity=".265602"/><path d="m1040 104v52h-52c0-28.718807 23.28119-52 52-52z" fill="#ffab0f" opacity=".678385"/><path d="m1196 156v52h-52c0-28.718807 23.28119-52 52-52z" fill="#fff" opacity=".391811"/><path d="m1456 208v52h-52c0-28.718807 23.28119-52 52-52z" fill="#ffab0f" opacity=".391811"/><path d="m1456 52v52h-52c0-28.718807 23.28119-52 52-52z" fill="#ffab0f" opacity=".678385"/></g><path d="m52 208v52h-52c0-28.718807 23.281193-52 52-52z" fill="#ffab0f" opacity=".391811" transform="matrix(-1 0 0 -1 52 468)"/><path d="m208 104v52h-52c0-28.718807 23.281193-52 52-52z" fill="#ffab0f" opacity=".284924" transform="matrix(0 -1 1 0 52 312)"/><path d="m364 208v52h-52c0-28.718807 23.281193-52 52-52z" fill="#fff" opacity=".391811" transform="matrix(-1 0 0 -1 676 468)"/><path d="m520 104v52h-52c0-28.718807 23.281193-52 52-52z" fill="#ffab0f" opacity=".678385" transform="matrix(0 -1 1 0 364 624)"/><path d="m832 156v52h-52c0-28.718807 23.281193-52 52-52z" fill="#ffab0f" opacity=".678385" transform="matrix(0 -1 1 0 624 988)"/><path d="m1300 104v52h-52c0-28.718807 23.28119-52 52-52z" fill="#ffab0f" opacity=".906436"/></g></svg>