<svg height="260" viewBox="0 0 1508 260" width="1508" xmlns="http://www.w3.org/2000/svg"><g fill="none" fill-rule="evenodd" transform="translate(52)"><g fill="#ffab0f"><path d="m104 208v52h-52c0-28.718807 23.281193-52 52-52z" opacity=".391811" transform="matrix(-1 0 0 -1 156 468)"/><path d="m260 104v52h-52c0-28.718807 23.281193-52 52-52z" opacity=".391811"/><path d="m884 0v52h-52c0-28.718807 23.281193-52 52-52z" opacity=".391811"/><path d="m884 208v52h-52c0-28.718807 23.281193-52 52-52z" opacity=".716332" transform="matrix(-1 0 0 -1 1716 468)"/><path d="m1196 208v52h-52c0-28.718807 23.28119-52 52-52z" opacity=".665597"/></g><path d="m1352 104v52h-52c0-28.718807 23.28119-52 52-52z" fill="#fff" opacity=".481585" transform="matrix(0 -1 1 0 1196 1456)"/><path d="m52 52v52h-52c0-28.718807 23.281193-52 52-52z" fill="#fff" opacity=".584287"/><path d="m208 52v52h-52c0-28.718807 23.281193-52 52-52z" fill="#ffab0f" opacity=".391811"/><path d="m364 104v52h-52c0-28.718807 23.281193-52 52-52z" fill="#fff" opacity=".391811"/><path d="m676 104v52h-52c0-28.718807 23.281193-52 52-52z" fill="#fff" opacity=".391811"/><path d="m832 156v52h-52c0-28.718807 23.281193-52 52-52z" fill="#ffab0f" opacity=".391811"/><path d="m1144 52v52h-52c0-28.718807 23.28119-52 52-52z" fill="#ffab0f" opacity=".716332" transform="matrix(-1 0 0 -1 2236 156)"/><path d="m1300 0v52h-52c0-28.718807 23.28119-52 52-52z" fill="#ffab0f" opacity=".716332" transform="matrix(0 1 -1 0 1300 -1248)"/><path d="m468 208v52h-52c0-28.718807 23.281193-52 52-52z" fill="#ffab0f" opacity=".391811" transform="matrix(-1 0 0 -1 884 468)"/><path d="m624 52v52h-52c0-28.718807 23.281193-52 52-52z" fill="#ffab0f" opacity=".391811" transform="matrix(-1 0 0 -1 1196 156)"/><path d="m1092 104v52h-52c0-28.718807 23.28119-52 52-52z" fill="#fff" opacity=".391811" transform="matrix(-1 0 0 -1 2132 260)"/></g></svg>