<?xml version="1.0" encoding="UTF-8"?>
<svg width="98px" height="74px" viewBox="0 0 98 74" version="1.1" xmlns="http://www.w3.org/2000/svg" xmlns:xlink="http://www.w3.org/1999/xlink">
    <title>noun-developer-955660</title>
    <g id="Page-1" stroke="none" stroke-width="1" fill="none" fill-rule="evenodd">
        <g id="noun-developer-955660" transform="translate(0.100000, 0.100000)" fill-rule="nonzero">
            <g id="Group" transform="translate(0.000000, -0.000000)">
                <path d="M92.6,0 L5.3,0 C2.4,0 0,2.4 0,5.3 L0,68.4 C0,71.3 2.4,73.7 5.3,73.7 L92.6,73.7 C95.5,73.7 97.9,71.3 97.9,68.4 L97.9,5.3 C97.9,2.4 95.5,0 92.6,0 Z M31.3,5.5 L66.6,5.5 C67.4,5.5 68,6.1 68,6.9 C68,7.7 67.4,8.3 66.6,8.3 L31.3,8.3 C30.5,8.3 29.9,7.7 29.9,6.9 C29.9,6.1 30.5,5.5 31.3,5.5 Z M16,5.5 C16.8,5.5 17.4,6.1 17.4,6.9 C17.4,7.7 16.8,8.3 16,8.3 C15.2,8.3 14.6,7.7 14.6,6.9 C14.6,6.1 15.2,5.5 16,5.5 Z M11.3,5.5 C12.1,5.5 12.7,6.1 12.7,6.9 C12.7,7.7 12.1,8.3 11.3,8.3 C10.5,8.3 9.9,7.7 9.9,6.9 C9.9,6.1 10.6,5.5 11.3,5.5 Z M6.7,5.5 C7.5,5.5 8.1,6.1 8.1,6.9 C8.1,7.7 7.5,8.3 6.7,8.3 C5.9,8.3 5.3,7.7 5.3,6.9 C5.3,6.1 5.9,5.5 6.7,5.5 Z M95.1,68.5 C95.1,69.9 94,71 92.6,71 L5.3,71 C3.9,71 2.8,69.9 2.8,68.5 L2.8,13.8 L95.2,13.8 L95.2,68.5 L95.1,68.5 Z" id="Shape" fill="#000000"></path>
                <polygon id="Path" fill="#04879D" points="37 48.2 29.7 43.1 37 38 34.5 34.5 22.2 43.1 34.5 51.7"></polygon>
                <polygon id="Path" fill="#C6D7DA" points="57.3 26.9 52.4 26.9 40.5 57.9 45.3 57.9"></polygon>
                <polygon id="Path" fill="#04879D" points="63.3 51.7 75.6 43.1 63.3 34.5 60.8 38 68.1 43.1 60.8 48.2"></polygon>
            </g>
        </g>
    </g>
</svg>