<svg height="74" viewBox="0 0 98 74" width="98" xmlns="http://www.w3.org/2000/svg"><g fill="none" transform="translate(.1 .1)"><path d="m92.6 0h-87.3c-2.9 0-5.3 2.4-5.3 5.3v63.1c0 2.9 2.4 5.3 5.3 5.3h87.3c2.9 0 5.3-2.4 5.3-5.3v-63.1c0-2.9-2.4-5.3-5.3-5.3zm-61.3 5.5h35.3c.8 0 1.4.6 1.4 1.4s-.6 1.4-1.4 1.4h-35.3c-.8 0-1.4-.6-1.4-1.4s.6-1.4 1.4-1.4zm-15.3 0c.8 0 1.4.6 1.4 1.4s-.6 1.4-1.4 1.4-1.4-.6-1.4-1.4.6-1.4 1.4-1.4zm-4.7 0c.8 0 1.4.6 1.4 1.4s-.6 1.4-1.4 1.4-1.4-.6-1.4-1.4.7-1.4 1.4-1.4zm-4.6 0c.8 0 1.4.6 1.4 1.4s-.6 1.4-1.4 1.4-1.4-.6-1.4-1.4.6-1.4 1.4-1.4zm88.4 63c0 1.4-1.1 2.5-2.5 2.5h-87.3c-1.4 0-2.5-1.1-2.5-2.5v-54.7h92.4v54.7z" fill="#000"/><g fill="#04879d"><path d="m37 48.2-7.3-5.1 7.3-5.1-2.5-3.5-12.3 8.6 12.3 8.6z"/><path d="m57.3 26.9h-4.9l-11.9 31h4.8z" fill-opacity=".4"/><path d="m63.3 51.7 12.3-8.6-12.3-8.6-2.5 3.5 7.3 5.1-7.3 5.1z"/></g></g></svg>