<svg height="74" viewBox="0 0 98 74" width="98" xmlns="http://www.w3.org/2000/svg"><g fill="none" transform="translate(.1 .1)"><path d="m92.6 0h-87.3c-2.9 0-5.3 2.4-5.3 5.3v63.1c0 2.9 2.4 5.3 5.3 5.3h87.3c2.9 0 5.3-2.4 5.3-5.3v-63.1c0-2.9-2.4-5.3-5.3-5.3zm-61.3 5.5h35.3c.8 0 1.4.6 1.4 1.4s-.6 1.4-1.4 1.4h-35.3c-.8 0-1.4-.6-1.4-1.4s.6-1.4 1.4-1.4zm-15.3 0c.8 0 1.4.6 1.4 1.4s-.6 1.4-1.4 1.4-1.4-.6-1.4-1.4.6-1.4 1.4-1.4zm-4.7 0c.8 0 1.4.6 1.4 1.4s-.6 1.4-1.4 1.4-1.4-.6-1.4-1.4.7-1.4 1.4-1.4zm-4.6 0c.8 0 1.4.6 1.4 1.4s-.6 1.4-1.4 1.4-1.4-.6-1.4-1.4.6-1.4 1.4-1.4zm88.4 63c0 1.4-1.1 2.5-2.5 2.5h-87.3c-1.4 0-2.5-1.1-2.5-2.5v-54.7h92.4v54.7z" fill="#000"/><g fill="#04879d"><path d="m44.1 24.5h36.6c.7 0 1.3-.6 1.3-1.3s-.6-1.3-1.3-1.3h-36.6c-.7 0-1.3.6-1.3 1.3 0 .8.6 1.3 1.3 1.3z" fill-opacity=".4"/><path d="m44.1 31.5h36.6c.7 0 1.3-.6 1.3-1.3s-.6-1.3-1.3-1.3h-36.6c-.7 0-1.3.6-1.3 1.3 0 .8.6 1.3 1.3 1.3z" fill-opacity=".4"/><path d="m44.1 38.5h36.6c.7 0 1.3-.6 1.3-1.3s-.6-1.3-1.3-1.3h-36.6c-.7 0-1.3.6-1.3 1.3s.6 1.3 1.3 1.3z" fill-opacity=".4"/><path d="m18.5 39.5h17c1.5 0 2.7-1.2 2.7-2.7v-13.2c0-1.5-1.2-2.7-2.7-2.7h-17c-1.5 0-2.7 1.2-2.7 2.7v13.2c.1 1.5 1.3 2.7 2.7 2.7z"/><path d="m53.7 59.8h-36.6c-.7 0-1.3.6-1.3 1.3s.6 1.3 1.3 1.3h36.6c.7 0 1.3-.6 1.3-1.3 0-.8-.6-1.3-1.3-1.3z" fill-opacity=".4"/><path d="m53.7 52.8h-36.6c-.7 0-1.3.6-1.3 1.3s.6 1.3 1.3 1.3h36.6c.7 0 1.3-.6 1.3-1.3 0-.8-.6-1.3-1.3-1.3z" fill-opacity=".4"/><path d="m53.7 45.8h-36.6c-.7 0-1.3.6-1.3 1.3s.6 1.3 1.3 1.3h36.6c.7 0 1.3-.6 1.3-1.3s-.6-1.3-1.3-1.3z" fill-opacity=".4"/><path d="m79.3 44.8h-17c-1.5 0-2.7 1.2-2.7 2.7v13.2c0 1.5 1.2 2.7 2.7 2.7h17c1.5 0 2.7-1.2 2.7-2.7v-13.2c-.1-1.5-1.3-2.7-2.7-2.7z"/></g></g></svg>