<?xml version="1.0" encoding="UTF-8"?>
<svg width="98px" height="74px" viewBox="0 0 98 74" version="1.1" xmlns="http://www.w3.org/2000/svg" xmlns:xlink="http://www.w3.org/1999/xlink">
    <title>design</title>
    <g id="Page-1" stroke="none" stroke-width="1" fill="none" fill-rule="evenodd">
        <g id="design" transform="translate(0.100000, 0.100000)" fill-rule="nonzero">
            <path d="M92.6,0 L5.3,0 C2.4,0 0,2.4 0,5.3 L0,68.4 C0,71.3 2.4,73.7 5.3,73.7 L92.6,73.7 C95.5,73.7 97.9,71.3 97.9,68.4 L97.9,5.3 C97.9,2.4 95.5,0 92.6,0 Z M31.3,5.5 L66.6,5.5 C67.4,5.5 68,6.1 68,6.9 C68,7.7 67.4,8.3 66.6,8.3 L31.3,8.3 C30.5,8.3 29.9,7.7 29.9,6.9 C29.9,6.1 30.5,5.5 31.3,5.5 Z M16,5.5 C16.8,5.5 17.4,6.1 17.4,6.9 C17.4,7.7 16.8,8.3 16,8.3 C15.2,8.3 14.6,7.7 14.6,6.9 C14.6,6.1 15.2,5.5 16,5.5 Z M11.3,5.5 C12.1,5.5 12.7,6.1 12.7,6.9 C12.7,7.7 12.1,8.3 11.3,8.3 C10.5,8.3 9.9,7.7 9.9,6.9 C9.9,6.1 10.6,5.5 11.3,5.5 Z M6.7,5.5 C7.5,5.5 8.1,6.1 8.1,6.9 C8.1,7.7 7.5,8.3 6.7,8.3 C5.9,8.3 5.3,7.7 5.3,6.9 C5.3,6.1 5.9,5.5 6.7,5.5 Z M95.1,68.5 C95.1,69.9 94,71 92.6,71 L5.3,71 C3.9,71 2.8,69.9 2.8,68.5 L2.8,13.8 L95.2,13.8 L95.2,68.5 L95.1,68.5 Z" id="Shape" fill="#000000"></path>
            <path d="M44.1,24.5 L80.7,24.5 C81.4,24.5 82,23.9 82,23.2 C82,22.5 81.4,21.9 80.7,21.9 L44.1,21.9 C43.4,21.9 42.8,22.5 42.8,23.2 C42.8,24 43.4,24.5 44.1,24.5 Z" id="Path" fill-opacity="0.4" fill="#04879D"></path>
            <path d="M44.1,31.5 L80.7,31.5 C81.4,31.5 82,30.9 82,30.2 C82,29.5 81.4,28.9 80.7,28.9 L44.1,28.9 C43.4,28.9 42.8,29.5 42.8,30.2 C42.8,31 43.4,31.5 44.1,31.5 Z" id="Path" fill-opacity="0.4" fill="#04879D"></path>
            <path d="M44.1,38.5 L80.7,38.5 C81.4,38.5 82,37.9 82,37.2 C82,36.5 81.4,35.9 80.7,35.9 L44.1,35.9 C43.4,35.9 42.8,36.5 42.8,37.2 C42.8,37.9 43.4,38.5 44.1,38.5 Z" id="Path" fill-opacity="0.4" fill="#04879D"></path>
            <path d="M18.5,39.5 L35.5,39.5 C37,39.5 38.2,38.3 38.2,36.8 L38.2,23.6 C38.2,22.1 37,20.9 35.5,20.9 L18.5,20.9 C17,20.9 15.8,22.1 15.8,23.6 L15.8,36.8 C15.9,38.3 17.1,39.5 18.5,39.5 Z" id="Path" fill="#04879D"></path>
            <path d="M53.7,59.8 L17.1,59.8 C16.4,59.8 15.8,60.4 15.8,61.1 C15.8,61.8 16.4,62.4 17.1,62.4 L53.7,62.4 C54.4,62.4 55,61.8 55,61.1 C55,60.3 54.4,59.8 53.7,59.8 Z" id="Path" fill-opacity="0.4" fill="#04879D"></path>
            <path d="M53.7,52.8 L17.1,52.8 C16.4,52.8 15.8,53.4 15.8,54.1 C15.8,54.8 16.4,55.4 17.1,55.4 L53.7,55.4 C54.4,55.4 55,54.8 55,54.1 C55,53.3 54.4,52.8 53.7,52.8 Z" id="Path" fill-opacity="0.4" fill="#04879D"></path>
            <path d="M53.7,45.8 L17.1,45.8 C16.4,45.8 15.8,46.4 15.8,47.1 C15.8,47.8 16.4,48.4 17.1,48.4 L53.7,48.4 C54.4,48.4 55,47.8 55,47.1 C55,46.4 54.4,45.8 53.7,45.8 Z" id="Path" fill-opacity="0.4" fill="#04879D"></path>
            <path d="M79.3,44.8 L62.3,44.8 C60.8,44.8 59.6,46 59.6,47.5 L59.6,60.7 C59.6,62.2 60.8,63.4 62.3,63.4 L79.3,63.4 C80.8,63.4 82,62.2 82,60.7 L82,47.5 C81.9,46 80.7,44.8 79.3,44.8 Z" id="Path" fill="#04879D"></path>
        </g>
    </g>
</svg>