<svg height="74" viewBox="0 0 98 74" width="98" xmlns="http://www.w3.org/2000/svg"><g fill="none" transform="translate(.1)"><g fill="#04879d"><path d="m37.5 24.7h43.2c.7 0 1.3-.6 1.3-1.3s-.6-1.3-1.3-1.3h-43.2c-.7 0-1.3.6-1.3 1.3s.6 1.3 1.3 1.3z" fill-opacity=".4"/><path d="m37.5 31.6h33.8c.7 0 1.3-.6 1.3-1.3s-.6-1.3-1.3-1.3h-33.8c-.7 0-1.3.6-1.3 1.3 0 .8.6 1.3 1.3 1.3z" fill-opacity=".4"/><path d="m18.5 32.3h10.6c1.5 0 2.7-1.2 2.7-2.7v-5.5c0-1.5-1.2-2.7-2.7-2.7h-10.6c-1.5 0-2.7 1.2-2.7 2.7v5.5c.1 1.5 1.3 2.7 2.7 2.7z"/><path d="m37.5 40.2h43.2c.7 0 1.3-.6 1.3-1.3s-.6-1.3-1.3-1.3h-43.2c-.7 0-1.3.6-1.3 1.3s.6 1.3 1.3 1.3z" fill-opacity=".4"/><path d="m37.5 47.2h33.8c.7 0 1.3-.6 1.3-1.3s-.6-1.3-1.3-1.3h-33.8c-.7 0-1.3.6-1.3 1.3s.6 1.3 1.3 1.3z" fill-opacity=".4"/><path d="m18.5 47.8h10.6c1.5 0 2.7-1.2 2.7-2.7v-5.5c0-1.5-1.2-2.7-2.7-2.7h-10.6c-1.5 0-2.7 1.2-2.7 2.7v5.5c.1 1.5 1.3 2.7 2.7 2.7z"/><path d="m37.5 55.7h43.2c.7 0 1.3-.6 1.3-1.3s-.6-1.3-1.3-1.3h-43.2c-.7 0-1.3.6-1.3 1.3s.6 1.3 1.3 1.3z" fill-opacity=".4"/><path d="m37.5 62.7h33.8c.7 0 1.3-.6 1.3-1.3s-.6-1.3-1.3-1.3h-33.8c-.7 0-1.3.6-1.3 1.3s.6 1.3 1.3 1.3z" fill-opacity=".4"/><path d="m18.5 63.3h10.6c1.5 0 2.7-1.2 2.7-2.7v-5.5c0-1.5-1.2-2.7-2.7-2.7h-10.6c-1.5 0-2.7 1.2-2.7 2.7v5.5c.1 1.5 1.3 2.7 2.7 2.7z"/></g><path d="m92.6 0h-87.3c-2.9 0-5.3 2.4-5.3 5.3v63.1c0 2.9 2.4 5.3 5.3 5.3h87.3c2.9 0 5.3-2.4 5.3-5.3v-63.1c0-2.9-2.4-5.3-5.3-5.3zm-61.3 5.5h35.3c.8 0 1.4.6 1.4 1.4s-.6 1.4-1.4 1.4h-35.3c-.8 0-1.4-.6-1.4-1.4s.6-1.4 1.4-1.4zm-15.3 0c.8 0 1.4.6 1.4 1.4s-.6 1.4-1.4 1.4-1.4-.6-1.4-1.4.6-1.4 1.4-1.4zm-4.7 0c.8 0 1.4.6 1.4 1.4s-.6 1.4-1.4 1.4-1.4-.6-1.4-1.4.7-1.4 1.4-1.4zm-4.6 0c.8 0 1.4.6 1.4 1.4s-.6 1.4-1.4 1.4-1.4-.6-1.4-1.4.6-1.4 1.4-1.4zm88.4 63c0 1.4-1.1 2.5-2.5 2.5h-87.3c-1.4 0-2.5-1.1-2.5-2.5v-54.7h92.4v54.7z" fill="#000"/></g></svg>