<?xml version="1.0" encoding="UTF-8"?>
<svg width="98px" height="74px" viewBox="0 0 98 74" version="1.1" xmlns="http://www.w3.org/2000/svg" xmlns:xlink="http://www.w3.org/1999/xlink">
    <title>noun-blog-955657</title>
    <g id="Page-1" stroke="none" stroke-width="1" fill="none" fill-rule="evenodd">
        <g id="noun-blog-955657" transform="translate(0.100000, 0.000000)" fill-rule="nonzero">
            <g id="Group" transform="translate(0.000000, -0.000000)">
                <path d="M37.5,24.7 L80.7,24.7 C81.4,24.7 82,24.1 82,23.4 C82,22.7 81.4,22.1 80.7,22.1 L37.5,22.1 C36.8,22.1 36.2,22.7 36.2,23.4 C36.2,24.1 36.8,24.7 37.5,24.7 Z" id="Path" fill="#C6D7DA"></path>
                <path d="M37.5,31.6 L71.3,31.6 C72,31.6 72.6,31 72.6,30.3 C72.6,29.6 72,29 71.3,29 L37.5,29 C36.8,29 36.2,29.6 36.2,30.3 C36.2,31.1 36.8,31.6 37.5,31.6 Z" id="Path" fill="#C6D7DA"></path>
                <path d="M18.5,32.3 L29.1,32.3 C30.6,32.3 31.8,31.1 31.8,29.6 L31.8,24.1 C31.8,22.6 30.6,21.4 29.1,21.4 L18.5,21.4 C17,21.4 15.8,22.6 15.8,24.1 L15.8,29.6 C15.9,31.1 17.1,32.3 18.5,32.3 Z" id="Path" fill="#04879D"></path>
                <path d="M37.5,40.2 L80.7,40.2 C81.4,40.2 82,39.6 82,38.9 C82,38.2 81.4,37.6 80.7,37.6 L37.5,37.6 C36.8,37.6 36.2,38.2 36.2,38.9 C36.2,39.6 36.8,40.2 37.5,40.2 Z" id="Path" fill="#C6D7DA"></path>
                <path d="M37.5,47.2 L71.3,47.2 C72,47.2 72.6,46.6 72.6,45.9 C72.6,45.2 72,44.6 71.3,44.6 L37.5,44.6 C36.8,44.6 36.2,45.2 36.2,45.9 C36.2,46.6 36.8,47.2 37.5,47.2 Z" id="Path" fill="#C6D7DA"></path>
                <path d="M18.5,47.8 L29.1,47.8 C30.6,47.8 31.8,46.6 31.8,45.1 L31.8,39.6 C31.8,38.1 30.6,36.9 29.1,36.9 L18.5,36.9 C17,36.9 15.8,38.1 15.8,39.6 L15.8,45.1 C15.9,46.6 17.1,47.8 18.5,47.8 Z" id="Path" fill="#04879D"></path>
                <path d="M37.5,55.7 L80.7,55.7 C81.4,55.7 82,55.1 82,54.4 C82,53.7 81.4,53.1 80.7,53.1 L37.5,53.1 C36.8,53.1 36.2,53.7 36.2,54.4 C36.2,55.1 36.8,55.7 37.5,55.7 Z" id="Path" fill="#C6D7DA"></path>
                <path d="M37.5,62.7 L71.3,62.7 C72,62.7 72.6,62.1 72.6,61.4 C72.6,60.7 72,60.1 71.3,60.1 L37.5,60.1 C36.8,60.1 36.2,60.7 36.2,61.4 C36.2,62.1 36.8,62.7 37.5,62.7 Z" id="Path" fill="#C6D7DA"></path>
                <path d="M18.5,63.3 L29.1,63.3 C30.6,63.3 31.8,62.1 31.8,60.6 L31.8,55.1 C31.8,53.6 30.6,52.4 29.1,52.4 L18.5,52.4 C17,52.4 15.8,53.6 15.8,55.1 L15.8,60.6 C15.9,62.1 17.1,63.3 18.5,63.3 Z" id="Path" fill="#04879D"></path>
                <path d="M92.6,0 L5.3,0 C2.4,0 0,2.4 0,5.3 L0,68.4 C0,71.3 2.4,73.7 5.3,73.7 L92.6,73.7 C95.5,73.7 97.9,71.3 97.9,68.4 L97.9,5.3 C97.9,2.4 95.5,0 92.6,0 Z M31.3,5.5 L66.6,5.5 C67.4,5.5 68,6.1 68,6.9 C68,7.7 67.4,8.3 66.6,8.3 L31.3,8.3 C30.5,8.3 29.9,7.7 29.9,6.9 C29.9,6.1 30.5,5.5 31.3,5.5 Z M16,5.5 C16.8,5.5 17.4,6.1 17.4,6.9 C17.4,7.7 16.8,8.3 16,8.3 C15.2,8.3 14.6,7.7 14.6,6.9 C14.6,6.1 15.2,5.5 16,5.5 Z M11.3,5.5 C12.1,5.5 12.7,6.1 12.7,6.9 C12.7,7.7 12.1,8.3 11.3,8.3 C10.5,8.3 9.9,7.7 9.9,6.9 C9.9,6.1 10.6,5.5 11.3,5.5 Z M6.7,5.5 C7.5,5.5 8.1,6.1 8.1,6.9 C8.1,7.7 7.5,8.3 6.7,8.3 C5.9,8.3 5.3,7.7 5.3,6.9 C5.3,6.1 5.9,5.5 6.7,5.5 Z M95.1,68.5 C95.1,69.9 94,71 92.6,71 L5.3,71 C3.9,71 2.8,69.9 2.8,68.5 L2.8,13.8 L95.2,13.8 L95.2,68.5 L95.1,68.5 Z" id="Shape" fill="#000000"></path>
            </g>
        </g>
    </g>
</svg>