<svg width="141" height="72" viewBox="0 0 141 72" fill="none" xmlns="http://www.w3.org/2000/svg">
<path d="M52.4272 40.0863C52.6399 39.1302 52.9235 38.1883 53.2781 37.275C53.6184 36.3332 54.0723 35.4484 54.6112 34.6064C55.1359 33.7787 55.7741 33.0367 56.4832 32.366C57.1923 31.6952 58.029 31.153 58.9224 30.7677C59.3053 30.6963 59.7166 30.6392 60.1704 30.5821C60.6101 30.5393 61.0355 30.4537 61.461 30.3538C61.8581 30.2539 62.2268 30.1112 62.5672 29.8971C62.8933 29.6974 63.1344 29.3977 63.2621 29.0552C63.333 28.8554 63.3613 28.6413 63.3613 28.4416C63.3755 28.2418 63.3188 28.042 63.2195 27.8707C63.0919 27.6709 62.9784 27.4569 62.8933 27.2428C62.7941 26.9574 62.5955 26.7434 62.3261 26.6149C61.9857 26.4294 61.617 26.301 61.2482 26.2153C60.7944 26.1154 60.3406 26.0441 59.8726 26.0013C59.3763 25.9585 58.9224 25.9442 58.4828 25.9442C58.0715 25.9442 57.717 25.9585 57.405 25.987C57.1639 26.0013 56.9228 26.0441 56.6817 26.1012C55.4053 26.3866 54.1857 27.0145 52.9803 27.9849C51.7748 28.9553 50.7112 30.0969 49.8177 31.367C48.9243 32.6086 48.1868 33.9643 47.6337 35.3913C47.0948 36.7898 46.8254 38.0456 46.8254 39.173C46.797 39.3585 46.797 39.544 46.797 39.7153C46.797 39.9008 46.797 40.0863 46.797 40.2576C46.797 40.3004 46.797 40.3432 46.797 40.3717C45.5915 41.442 44.301 42.4124 42.9254 43.2687C41.6774 44.0535 39.1388 44.6529 38.0752 44.6529H37.7206C36.5577 44.553 35.7494 44.1106 35.3381 43.3115C34.8985 42.4552 34.6857 41.4991 34.6999 40.5287C34.6999 39.9293 34.7425 39.3443 34.8417 38.7592C34.941 38.1598 35.0545 37.5604 35.1963 36.9896C35.7068 34.9204 36.4868 33.1508 37.5505 31.7095C38.6141 30.2682 39.6635 29.5404 40.7414 29.5404C40.7981 29.5261 40.869 29.5404 40.9115 29.5689C40.9399 29.5975 40.9966 29.5975 41.0817 29.5975C41.4363 29.6545 41.7766 29.6831 42.1312 29.6688C42.9679 29.6688 43.6345 29.4833 44.1308 29.1265C44.6272 28.7698 44.8683 28.3417 44.8683 27.8707C44.8541 27.514 44.7264 27.1715 44.4854 26.9003C44.2301 26.5864 43.7763 26.3438 43.1097 26.144C42.5566 25.9585 41.9752 25.8158 41.3937 25.7444C40.8264 25.6731 40.245 25.6303 39.6777 25.6303C37.8483 25.616 36.0472 26.0156 34.3737 26.7862C32.7286 27.5425 31.2537 28.5843 29.9916 29.8829C28.7436 31.153 27.7225 32.6514 26.9708 34.2782C26.2334 35.8622 25.8505 37.5747 25.8505 39.3157C25.8505 40.8569 26.0774 42.1698 26.517 43.2829C26.8999 44.2961 27.4956 45.2237 28.233 46.0229C28.9279 46.7364 29.7646 47.3215 30.6865 47.7068C31.6083 48.1064 32.5868 48.3918 33.5795 48.5345C34.317 48.6772 35.0686 48.7486 35.8203 48.7486C37.5505 48.7628 39.2806 48.4061 40.869 47.7211C42.5141 47.0075 44.0599 46.0371 45.4355 44.8812C46.0737 44.3532 46.6835 43.7824 47.2508 43.183C47.421 43.6682 47.6479 44.1249 47.9174 44.553C48.3144 45.1666 48.7966 45.7232 49.3497 46.2084C50.0021 46.7792 50.7112 47.293 51.4486 47.7496C52.0584 48.1492 52.7108 48.4631 53.4057 48.6629C54.1006 48.877 54.8097 48.9912 55.533 48.9912C56.157 48.9912 56.781 48.877 57.3624 48.6344C58.3552 48.2063 59.2344 47.5641 59.9577 46.7649C60.7093 45.9373 61.3333 44.9954 61.8297 43.9965C62.3261 42.9832 62.6948 41.913 62.9359 40.8141C63.1628 39.8009 63.2904 38.7592 63.2904 37.7174C63.2904 37.5176 63.2763 37.2465 63.2479 36.9325C63.2195 36.6043 63.177 36.2761 63.1202 35.9621C63.0635 35.6625 62.9784 35.3628 62.865 35.0916C62.7941 34.8776 62.6381 34.7063 62.4395 34.6207C62.4112 34.5779 62.397 34.5351 62.397 34.478C62.397 34.4209 62.397 34.3781 62.3544 34.3353C62.3119 34.1783 62.241 34.0213 62.1417 33.8929C62.0424 33.7787 61.929 33.6646 61.8155 33.5504C61.7446 33.3506 61.6453 33.1651 61.5177 33.0081C61.3475 32.7513 61.2057 32.6371 61.0781 32.6371L60.8228 32.1662C60.7519 32.1376 60.681 32.1234 60.6101 32.1376C60.4683 32.1376 60.3973 32.1947 60.3973 32.3089C60.369 32.3517 60.3548 32.3945 60.369 32.4516C60.369 32.4944 60.369 32.5515 60.3832 32.5943C60.3973 32.6371 60.3973 32.6942 60.3973 32.737C60.5533 33.1366 60.6526 33.5504 60.6952 33.9785C60.7377 34.4066 60.7661 34.8205 60.7803 35.2486C60.6243 36.6186 60.3548 37.9886 60.0003 39.3157C59.6457 40.6286 59.1493 41.913 58.5395 43.126C58.3268 43.5541 58.0715 43.9822 57.7879 44.3675C57.4901 44.7671 57.1497 45.1096 56.7526 45.4092C56.469 45.6376 56.1712 45.8231 55.8308 45.9658C55.4479 46.1228 55.0366 46.1941 54.6253 46.1799C54.1999 46.1941 53.7744 46.0514 53.4483 45.7517C53.1363 45.4521 52.8952 45.081 52.7392 44.6814C52.5548 44.2248 52.4413 43.7396 52.3846 43.2401C52.3279 42.7407 52.2854 42.2412 52.2854 41.7274C52.2854 41.4135 52.2853 41.0995 52.3137 40.8141C52.3421 40.5287 52.413 40.2718 52.4272 40.0863Z" fill="white"/>
<path d="M88.1656 40.0863C88.3783 39.1302 88.6619 38.1884 89.0165 37.2751C89.3568 36.3332 89.8107 35.4484 90.3496 34.6065C90.8743 33.7788 91.5125 33.0367 92.2216 32.366C92.9307 31.6953 93.7674 31.153 94.6608 30.7677C95.0437 30.6963 95.455 30.6392 95.9088 30.5822C96.3485 30.5393 96.7739 30.4537 97.1994 30.3538C97.5965 30.2539 97.9652 30.1112 98.3056 29.8972C98.6318 29.6974 98.8728 29.3977 99.0005 29.0552C99.0714 28.8554 99.0997 28.6414 99.0997 28.4416C99.1139 28.2418 99.0572 28.042 98.9579 27.8708C98.8303 27.671 98.7168 27.4569 98.6317 27.2428C98.5325 26.9574 98.3339 26.7434 98.0645 26.6149C97.7241 26.4294 97.3554 26.301 96.9867 26.2154C96.5328 26.1155 96.079 26.0441 95.611 26.0013C95.1147 25.9585 94.6608 25.9442 94.2212 25.9442C93.8099 25.9442 93.4554 25.9585 93.1434 25.987C92.9023 26.0013 92.6612 26.0441 92.4201 26.1012C91.1437 26.3866 89.9241 27.0145 88.7187 27.9849C87.5132 28.9553 86.4496 30.097 85.5561 31.367C84.6627 32.6086 83.9252 33.9643 83.3721 35.3913C82.8332 36.7899 82.5637 38.0457 82.5637 39.173C82.5354 39.3586 82.5354 39.5441 82.5354 39.7153C82.5354 39.8866 82.5354 40.0578 82.5354 40.2291C81.8972 41.0996 81.2732 41.913 80.6634 42.6836C79.7699 43.8395 78.7914 44.9526 77.7703 46.0086C76.9194 46.8649 76.2954 47.293 75.8983 47.293C75.8274 47.3073 75.7565 47.2787 75.6997 47.2216C75.4445 46.9933 75.2459 46.4225 75.1325 45.5092C75.0048 44.4246 74.9481 43.34 74.9481 42.2412C74.9481 41.2565 74.9623 40.2291 74.9907 39.173C75.019 38.117 75.0616 37.1038 75.1041 36.1334C75.1467 35.163 75.175 34.3068 75.2176 33.5362C75.2601 32.7656 75.2885 32.1805 75.331 31.7809C76.3521 29.7117 77.3448 27.7566 78.295 25.93C79.2594 24.1033 80.1245 22.2767 80.9045 20.4501C81.7128 18.5663 82.4077 16.6398 83.0034 14.6705C83.6557 12.4585 84.1521 10.2038 84.4783 7.92051C84.5917 7.06427 84.6485 6.20804 84.6485 5.35181C84.6343 3.46809 84.2798 2.09812 83.5848 1.24188C82.9183 0.414192 81.9681 -0.0139251 80.7485 0.000345435H80.2663C80.0819 0.000345435 79.8976 0.0288866 79.7132 0.0716982C78.4227 0.300027 77.1321 1.22761 75.8274 2.85446C74.5227 4.4813 73.3172 6.52199 72.2252 8.9908C71.0481 11.6594 70.0979 14.4136 69.3747 17.2392C68.5947 20.1932 68.0274 23.2043 67.687 26.2439C67.3325 29.2835 67.1623 32.3517 67.1765 35.4199C67.2048 38.2026 67.4317 40.6144 67.8714 42.655C68.311 44.6957 69.0343 46.1799 70.0412 47.1217C70.807 47.8495 71.6579 48.4774 72.5797 48.9912C73.3739 49.4336 74.2674 49.6476 75.175 49.6476C76.735 49.6334 78.3801 48.8913 80.1387 47.4214C81.1314 46.5795 82.2234 45.4521 83.3863 44.025C83.4856 44.2105 83.5848 44.3818 83.6841 44.553C84.0812 45.1667 84.5634 45.7232 85.1165 46.2084C85.7688 46.7792 86.4779 47.293 87.2154 47.7496C87.8252 48.1492 88.4776 48.4632 89.1725 48.663C89.8674 48.877 90.5765 48.9912 91.2997 48.9912C91.9237 48.9912 92.5478 48.877 93.1292 48.6344C94.1219 48.2063 95.0012 47.5641 95.7245 46.765C96.4761 45.9373 97.1001 44.9954 97.5965 43.9965C98.0928 42.9833 98.4616 41.913 98.7027 40.8141C98.9296 39.8009 99.0572 38.7592 99.0572 37.7174C99.0572 37.5176 99.043 37.2465 99.0147 36.9326C98.9863 36.6043 98.9437 36.2761 98.887 35.9622C98.8303 35.6625 98.7452 35.3628 98.6317 35.0917C98.5608 34.8776 98.4048 34.7063 98.2063 34.6207C98.1779 34.5779 98.1637 34.5351 98.1637 34.478C98.1637 34.4209 98.1638 34.3781 98.1212 34.3353C98.0787 34.1783 98.0078 34.0214 97.9085 33.8929C97.8092 33.7788 97.6957 33.6646 97.5823 33.5504C97.5114 33.3506 97.4121 33.1651 97.2845 33.0082C97.1143 32.7513 96.9725 32.6371 96.8448 32.6371L96.5896 32.1662C96.5187 32.1376 96.4477 32.1234 96.3768 32.1376C96.235 32.1376 96.1641 32.1947 96.1641 32.3089C96.1357 32.3517 96.1216 32.3945 96.1358 32.4516C96.1358 32.4944 96.1357 32.5515 96.1499 32.5943C96.1641 32.6371 96.1641 32.6942 96.1641 32.737C96.3201 33.1366 96.4194 33.5504 96.4619 33.9785C96.5045 34.4067 96.5328 34.8205 96.547 35.2486C96.391 36.6186 96.1216 37.9886 95.767 39.3157C95.4125 40.6286 94.9161 41.913 94.3063 43.126C94.0936 43.5541 93.8383 43.9822 93.5547 44.3675C93.2568 44.7671 92.9165 45.1096 92.5194 45.4093C92.2358 45.6376 91.9379 45.8231 91.5976 45.9658C91.2147 46.1228 90.8034 46.1941 90.3921 46.1799C89.9667 46.1941 89.5412 46.0514 89.215 45.7518C88.903 45.4521 88.6619 45.081 88.5059 44.6815C88.3216 44.2248 88.2081 43.7396 88.1514 43.2401C88.0947 42.7407 88.0521 42.2412 88.0521 41.7275C88.0521 41.4135 88.0521 41.0996 88.0805 40.8141C88.1088 40.5287 88.1514 40.2719 88.1656 40.0863ZM76.4372 20.2217C76.891 18.124 77.4583 15.9691 78.1107 13.7429C78.763 11.5167 79.4579 9.40464 80.1954 7.43531C80.9328 5.4517 81.6277 3.93902 82.2659 2.91154C82.2659 2.86873 82.2801 2.95435 82.2943 3.18268C82.3085 3.41101 82.3227 3.6108 82.3368 3.78204C82.0674 5.70857 81.6987 7.62082 81.2165 9.51881C80.7485 11.3169 80.2379 13.0864 79.6707 14.8132C79.1034 16.5399 78.4936 18.2524 77.827 19.9506C77.1747 21.6345 76.4656 23.3613 75.6997 25.1165C75.7281 23.9463 75.9834 22.3195 76.4372 20.2217Z" fill="white"/>
<path d="M139.744 37.9603C139.475 37.5893 139.191 37.4181 138.893 37.4323C138.709 37.4466 138.539 37.5608 138.397 37.8176C138.326 37.9603 137.915 38.6596 137.574 39.3731C136.95 40.686 135.901 42.0845 135.39 42.7124C134.88 43.3403 134.454 43.6543 134.156 43.6686C134.043 43.6828 133.93 43.6257 133.859 43.5401C133.703 43.3546 133.603 42.955 133.575 42.3414C133.547 41.2854 133.603 40.2436 133.731 39.2019C133.873 37.9175 134.043 36.6046 134.242 35.2632C134.44 33.9218 134.639 32.7088 134.837 31.6099C134.979 30.8536 135.092 30.083 135.149 29.3124C135.248 29.0127 135.291 28.6987 135.277 28.3848C135.248 27.7141 134.951 27.1147 134.412 26.5724C133.873 26.0301 133.263 25.7733 132.582 25.8161C132.398 25.8304 132.228 25.8304 132.043 25.8018C131.887 25.7876 131.717 25.7876 131.561 25.7876C131.32 25.7876 131.079 25.8732 130.895 26.0301C130.455 26.3869 130.044 27.0862 129.661 28.1565C129.25 29.3266 128.909 30.5111 128.668 31.7241C128.597 32.0809 128.526 32.4376 128.455 32.7944C128.115 32.8657 127.789 33.0085 127.505 33.194C125.874 34.1216 123.704 35.7627 121.946 37.1897C121.889 35.8911 121.634 29.3695 121.634 29.1269C121.634 28.9128 121.662 28.6845 121.705 28.4704C121.747 28.2564 121.762 28.0423 121.762 27.814C121.747 27.3859 121.577 26.9863 121.308 26.6723C121.052 26.3869 120.726 26.1729 120.372 26.0587C119.989 25.9303 119.578 25.8304 119.166 25.8018C118.727 25.759 118.301 25.7305 117.862 25.7305C115.89 25.7447 113.947 26.1729 112.146 27.0005C110.289 27.8282 108.544 28.8985 106.984 30.1972C105.523 31.3959 104.261 32.8087 103.254 34.407C102.304 35.9339 101.822 37.3895 101.822 38.788C101.822 39.5301 103.595 47.65 113.735 40.0438C117.464 37.2468 117.11 35.7341 117.592 35.5201C117.635 36.1337 117.663 36.2193 117.663 36.833V40.4291C116.798 41.3425 111.466 46.7653 106.644 53.187C104.431 56.455 102.389 61.0358 101.822 64.0327C101.269 66.9867 100.149 73.3656 106.913 71.7388C110.473 70.8825 116.287 63.7472 117.862 59.4375C119.578 54.714 121.818 49.4053 122.074 43.0407L122.045 42.0417L127.491 36.4905C127.491 36.4905 127.76 36.0766 128.058 35.5201C128.044 35.6057 128.03 35.7056 128.03 35.7912C127.888 36.9757 127.846 38.1744 127.888 39.3589C127.959 40.7288 128.158 41.8419 128.484 42.6696C128.753 43.3974 129.122 44.0681 129.604 44.6818C129.959 45.1242 130.384 45.4809 130.88 45.7521C131.306 45.9661 131.66 46.1374 131.93 46.2658C132.199 46.38 132.483 46.4656 132.767 46.5084C133.022 46.5369 133.277 46.5512 133.532 46.5369C134.511 46.4941 135.461 46.066 136.369 45.2954C137.347 44.4392 138.212 43.4545 138.936 42.3557C139.404 41.6707 139.758 40.9001 139.971 40.1009C140.113 39.8441 140.184 39.5444 140.155 39.2447C140.155 38.7738 140.014 38.3314 139.744 37.9603ZM113.323 35.6057C110.686 38.3742 107.495 39.3874 106.8 38.7452C106.062 38.0602 108.275 34.7209 110.771 32.6089C114.387 29.5407 116.103 29.0698 116.67 28.8557C117.436 28.8985 116.302 32.4662 113.323 35.6057ZM115.748 52.3308C115.011 54.3287 114.132 56.2837 113.153 58.1817C112.175 60.0797 111.054 61.8921 109.806 63.6045C108.587 65.2599 107.452 66.4586 106.36 67.2007C106.403 65.5881 106.828 63.8757 107.622 62.0776C108.445 60.2224 109.395 58.4386 110.473 56.7261C111.579 54.9566 112.728 53.2726 113.919 51.6601C115.11 50.0475 116.131 48.6347 116.996 47.4074C116.883 48.7489 116.472 50.39 115.748 52.3308Z" fill="white"/>
<path d="M131.704 21.8627C132.002 22.3479 132.356 22.7903 132.768 23.1898C133.165 23.5894 133.59 23.7892 134.03 23.7607C134.753 23.7321 135.391 23.3468 135.959 22.619C136.526 21.9198 136.795 21.0207 136.739 20.1217L136.71 19.6079C136.654 18.3664 136.441 17.5101 136.1 17.025C135.803 16.5683 135.278 16.3114 134.739 16.3542C134.37 16.397 134.016 16.4969 133.661 16.6254C133.165 16.8109 132.711 17.0535 132.286 17.3674C131.846 17.6814 131.449 18.0667 131.137 18.5091C130.825 18.9087 130.669 19.4081 130.697 19.9076C130.981 20.5926 131.321 21.2348 131.704 21.8627Z" fill="white"/>
<path d="M25.8223 7.77778C27.3823 7.77778 28.2332 5.35178 27.8078 5.06637C27.3823 4.78096 10.3641 3.35391 5.82596 4.21014C1.28778 5.06637 4.40778 7.34966 4.40778 7.34966C4.40778 7.34966 1.85506 27.7566 1.00415 33.3221C0.295058 37.9457 -0.697668 46.7364 0.720512 48.7343C2.13869 50.7322 11.5412 49.7903 14.9023 49.0197C22.9859 47.1645 24.9714 46.451 25.3968 46.0229C25.8223 45.5948 25.5103 44.1962 24.2623 44.4531C22.8441 44.7385 20.0078 44.7385 13.2005 44.8812C12.3496 44.8955 8.80414 44.8812 8.80414 44.025C8.80414 43.1688 10.7896 28.3274 10.7896 28.3274C10.7896 27.8993 20.8587 28.4701 21.8514 28.3274C22.8441 28.1847 24.1205 25.616 23.4114 25.1879C22.7023 24.7597 11.3569 24.617 11.3569 24.617L13.7678 8.3486C13.7678 8.3486 24.2623 7.77778 25.8223 7.77778Z" fill="white"/>
</svg>
