<svg fill="none" height="72" viewBox="0 0 141 72" width="141" xmlns="http://www.w3.org/2000/svg"><g fill="#fff"><path d="m52.4272 40.0863c.2127-.9561.4963-1.898.8509-2.8113.3403-.9418.7942-1.8266 1.3331-2.6686.5247-.8277 1.1629-1.5697 1.872-2.2404.7091-.6708 1.5458-1.213 2.4392-1.5983.3829-.0714.7942-.1285 1.248-.1856.4397-.0428.8651-.1284 1.2906-.2283.3971-.0999.7658-.2426 1.1062-.4567.3261-.1997.5672-.4994.6949-.8419.0709-.1998.0992-.4139.0992-.6136.0142-.1998-.0425-.3996-.1418-.5709-.1276-.1998-.2411-.4138-.3262-.6279-.0992-.2854-.2978-.4994-.5672-.6279-.3404-.1855-.7091-.3139-1.0779-.3996-.4538-.0999-.9076-.1712-1.3756-.214-.4963-.0428-.9502-.0571-1.3898-.0571-.4113 0-.7658.0143-1.0778.0428-.2411.0143-.4822.0571-.7233.1142-1.2764.2854-2.496.9133-3.7014 1.8837-1.2055.9704-2.2691 2.112-3.1626 3.3821-.8934 1.2416-1.6309 2.5973-2.184 4.0243-.5389 1.3985-.8083 2.6543-.8083 3.7817-.0284.1855-.0284.371-.0284.5423v.5423.1141c-1.2055 1.0703-2.496 2.0407-3.8716 2.897-1.248.7848-3.7866 1.3842-4.8502 1.3842h-.3546c-1.1629-.0999-1.9712-.5423-2.3825-1.3414-.4396-.8563-.6524-1.8124-.6382-2.7828 0-.5994.0426-1.1844.1418-1.7695.0993-.5994.2128-1.1988.3546-1.7696.5105-2.0692 1.2905-3.8388 2.3542-5.2801 1.0636-1.4413 2.113-2.1691 3.1909-2.1691.0567-.0143.1276 0 .1701.0285.0284.0286.0851.0286.1702.0286.3546.057.6949.0856 1.0495.0713.8367 0 1.5033-.1855 1.9996-.5423.4964-.3567.7375-.7848.7375-1.2558-.0142-.3567-.1419-.6992-.3829-.9704-.2553-.3139-.7091-.5565-1.3757-.7563-.5531-.1855-1.1345-.3282-1.716-.3996-.5673-.0713-1.1487-.1141-1.716-.1141-1.8294-.0143-3.6305.3853-5.304 1.1559-1.6451.7563-3.12 1.7981-4.3821 3.0967-1.248 1.2701-2.2691 2.7685-3.0208 4.3953-.7374 1.584-1.1203 3.2965-1.1203 5.0375 0 1.5412.2269 2.8541.6665 3.9672.3829 1.0132.9786 1.9408 1.716 2.74.6949.7135 1.5316 1.2986 2.4535 1.6839.9218.3996 1.9003.685 2.893.8277.7375.1427 1.4891.2141 2.2408.2141 1.7302.0142 3.4603-.3425 5.0487-1.0275 1.6451-.7136 3.1909-1.684 4.5665-2.8399.6382-.528 1.248-1.0988 1.8153-1.6982.1702.4852.3971.9419.6666 1.37.397.6136.8792 1.1702 1.4323 1.6554.6524.5708 1.3615 1.0846 2.0989 1.5412.6098.3996 1.2622.7135 1.9571.9133.6949.2141 1.404.3283 2.1273.3283.624 0 1.248-.1142 1.8294-.3568.9928-.4281 1.872-1.0703 2.5953-1.8695.7516-.8276 1.3756-1.7695 1.872-2.7684.4964-1.0133.8651-2.0835 1.1062-3.1824.2269-1.0132.3545-2.0549.3545-3.0967 0-.1998-.0141-.4709-.0425-.7849-.0284-.3282-.0709-.6564-.1277-.9704-.0567-.2996-.1418-.5993-.2552-.8705-.0709-.214-.2269-.3853-.4255-.4709-.0283-.0428-.0425-.0856-.0425-.1427s0-.0999-.0426-.1427c-.0425-.157-.1134-.314-.2127-.4424-.0993-.1142-.2127-.2283-.3262-.3425-.0709-.1998-.1702-.3853-.2978-.5423-.1702-.2568-.312-.371-.4396-.371l-.2553-.4709c-.0709-.0286-.1418-.0428-.2127-.0286-.1418 0-.2128.0571-.2128.1713-.0283.0428-.0425.0856-.0283.1427 0 .0428 0 .0999.0142.1427.0141.0428.0141.0999.0141.1427.156.3996.2553.8134.2979 1.2415.0425.4281.0709.842.0851 1.2701-.156 1.37-.4255 2.74-.78 4.0671-.3546 1.3129-.851 2.5973-1.4608 3.8103-.2127.4281-.468.8562-.7516 1.2415-.2978.3996-.6382.7421-1.0353 1.0417-.2836.2284-.5814.4139-.9218.5566-.3829.157-.7942.2283-1.2055.2141-.4254.0142-.8509-.1285-1.177-.4282-.312-.2996-.5531-.6707-.7091-1.0703-.1844-.4566-.2979-.9418-.3546-1.4413-.0567-.4994-.0992-.9989-.0992-1.5127 0-.3139-.0001-.6279.0283-.9133s.0993-.5423.1135-.7278z"/><path d="m88.1656 40.0863c.2127-.9561.4963-1.8979.8509-2.8112.3403-.9419.7942-1.8267 1.3331-2.6686.5247-.8277 1.1629-1.5698 1.872-2.2405s1.5458-1.213 2.4392-1.5983c.3829-.0714.7942-.1285 1.248-.1855.4397-.0429.8651-.1285 1.2906-.2284.3971-.0999.7658-.2426 1.1062-.4566.3262-.1998.5672-.4995.6949-.842.0709-.1998.0992-.4138.0992-.6136.0142-.1998-.0425-.3996-.1418-.5708-.1276-.1998-.2411-.4139-.3262-.628-.0992-.2854-.2978-.4994-.5672-.6279-.3404-.1855-.7091-.3139-1.0778-.3995-.4539-.0999-.9077-.1713-1.3757-.2141-.4963-.0428-.9502-.0571-1.3898-.0571-.4113 0-.7658.0143-1.0778.0428-.2411.0143-.4822.0571-.7233.1142-1.2764.2854-2.496.9133-3.7014 1.8837-1.2055.9704-2.2691 2.1121-3.1626 3.3821-.8934 1.2416-1.6309 2.5973-2.184 4.0243-.5389 1.3986-.8084 2.6544-.8084 3.7817-.0283.1856-.0283.3711-.0283.5423v.5138c-.6382.8705-1.2622 1.6839-1.872 2.4545-.8935 1.1559-1.872 2.269-2.8931 3.325-.8509.8563-1.4749 1.2844-1.872 1.2844-.0709.0143-.1418-.0143-.1986-.0714-.2552-.2283-.4538-.7991-.5672-1.7124-.1277-1.0846-.1844-2.1692-.1844-3.268 0-.9847.0142-2.0121.0426-3.0682.0283-1.056.0709-2.0692.1134-3.0396.0426-.9704.0709-1.8266.1135-2.5972.0425-.7706.0709-1.3557.1134-1.7553 1.0211-2.0692 2.0138-4.0243 2.964-5.8509.9644-1.8267 1.8295-3.6533 2.6095-5.4799.8083-1.8838 1.5032-3.8103 2.0989-5.7796.6523-2.212 1.1487-4.4667 1.4749-6.74999.1134-.85624.1702-1.71247.1702-2.5687-.0142-1.88372-.3687-3.25369-1.0637-4.10993-.6665-.827688-1.6167-1.2558051-2.8363-1.24153456h-.4822c-.1844 0-.3687.02854116-.5531.07135276-1.2905.2283288-2.5811 1.1559118-3.8858 2.7827618-1.3047 1.62684-2.5102 3.66753-3.6022 6.13634-1.1771 2.6686-2.1273 5.4228-2.8505 8.2484-.78 2.954-1.3473 5.9651-1.6877 9.0047-.3545 3.0396-.5247 6.1078-.5105 9.176.0283 2.7827.2552 5.1945.6949 7.2351.4396 2.0407 1.1629 3.5249 2.1698 4.4667.7658.7278 1.6167 1.3557 2.5385 1.8695.7942.4424 1.6877.6564 2.5953.6564 1.56-.0142 3.2051-.7563 4.9637-2.2262.9927-.8419 2.0847-1.9693 3.2476-3.3964.0993.1855.1985.3568.2978.528.3971.6137.8793 1.1702 1.4324 1.6554.6523.5708 1.3614 1.0846 2.0989 1.5412.6098.3996 1.2622.7136 1.9571.9134.6949.214 1.404.3282 2.1272.3282.624 0 1.2481-.1142 1.8295-.3568.9927-.4281 1.872-1.0703 2.5953-1.8694.7516-.8277 1.3756-1.7696 1.872-2.7685.4963-1.0132.8651-2.0835 1.1062-3.1824.2269-1.0132.3545-2.0549.3545-3.0967 0-.1998-.0142-.4709-.0425-.7848-.0284-.3283-.071-.6565-.1277-.9704-.0567-.2997-.1418-.5994-.2553-.8705-.0709-.2141-.2269-.3854-.4254-.471-.0284-.0428-.0426-.0856-.0426-.1427s.0001-.0999-.0425-.1427c-.0425-.157-.1134-.3139-.2127-.4424-.0993-.1141-.2128-.2283-.3262-.3425-.0709-.1998-.1702-.3853-.2978-.5422-.1702-.2569-.312-.3711-.4397-.3711l-.2552-.4709c-.0709-.0286-.1419-.0428-.2128-.0286-.1418 0-.2127.0571-.2127.1713-.0284.0428-.0425.0856-.0283.1427 0 .0428-.0001.0999.0141.1427s.0142.0999.0142.1427c.156.3996.2553.8134.2978 1.2415.0426.4282.0709.842.0851 1.2701-.156 1.37-.4254 2.74-.78 4.0671-.3545 1.3129-.8509 2.5973-1.4607 3.8103-.2127.4281-.468.8562-.7516 1.2415-.2979.3996-.6382.7421-1.0353 1.0418-.2836.2283-.5815.4138-.9218.5565-.3829.157-.7942.2283-1.2055.2141-.4254.0142-.8509-.1285-1.1771-.4281-.312-.2997-.5531-.6708-.7091-1.0703-.1843-.4567-.2978-.9419-.3545-1.4414-.0567-.4994-.0993-.9989-.0993-1.5126 0-.314 0-.6279.0284-.9134.0283-.2854.0709-.5422.0851-.7278zm-11.7284-19.8646c.4538-2.0977 1.0211-4.2526 1.6735-6.4788.6523-2.2262 1.3472-4.33826 2.0847-6.30759.7374-1.98361 1.4323-3.49629 2.0705-4.52377 0-.04281.0142.04281.0284.27114s.0284.42812.0425.59936c-.2694 1.92653-.6381 3.83878-1.1203 5.73677-.468 1.79809-.9786 3.56759-1.5458 5.29439-.5673 1.7267-1.1771 3.4392-1.8437 5.1374-.6523 1.6839-1.3614 3.4107-2.1273 5.1659.0284-1.1702.2837-2.797.7375-4.8948z"/><path d="m139.744 37.9603c-.269-.371-.553-.5422-.851-.528-.184.0143-.354.1285-.496.3853-.071.1427-.482.842-.823 1.5555-.624 1.3129-1.673 2.7114-2.184 3.3393-.51.6279-.936.9419-1.234.9562-.113.0142-.226-.0429-.297-.1285-.156-.1855-.256-.5851-.284-1.1987-.028-1.056.028-2.0978.156-3.1395.142-1.2844.312-2.5973.511-3.9387.198-1.3414.397-2.5544.595-3.6533.142-.7563.255-1.5269.312-2.2975.099-.2997.142-.6137.128-.9276-.029-.6707-.326-1.2701-.865-1.8124s-1.149-.7991-1.83-.7563c-.184.0143-.354.0143-.539-.0143-.156-.0142-.326-.0142-.482-.0142-.241 0-.482.0856-.666.2425-.44.3568-.851 1.0561-1.234 2.1264-.411 1.1701-.752 2.3546-.993 3.5676-.071.3568-.142.7135-.213 1.0703-.34.0713-.666.2141-.95.3996-1.631.9276-3.801 2.5687-5.559 3.9957-.057-1.2986-.312-7.8202-.312-8.0628 0-.2141.028-.4424.071-.6565.042-.214.057-.4281.057-.6564-.015-.4281-.185-.8277-.454-1.1417-.256-.2854-.582-.4994-.936-.6136-.383-.1284-.794-.2283-1.206-.2569-.439-.0428-.865-.0713-1.304-.0713-1.972.0142-3.915.4424-5.716 1.27-1.857.8277-3.602 1.898-5.162 3.1967-1.461 1.1987-2.723 2.6115-3.73 4.2098-.95 1.5269-1.432 2.9825-1.432 4.381 0 .7421 1.773 8.862 11.913 1.2558 3.729-2.797 3.375-4.3097 3.857-4.5237.043.6136.071.6992.071 1.3129v3.5961c-.865.9134-6.197 6.3362-11.019 12.7579-2.213 3.268-4.255 7.8488-4.822 10.8457-.553 2.954-1.673 9.3329 5.091 7.7061 3.56-.8563 9.374-7.9916 10.949-12.3013 1.716-4.7235 3.956-10.0322 4.212-16.3968l-.029-.999 5.446-5.5512s.269-.4139.567-.9704c-.014.0856-.028.1855-.028.2711-.142 1.1845-.184 2.3832-.142 3.5677.071 1.3699.27 2.483.596 3.3107.269.7278.638 1.3985 1.12 2.0122.355.4424.78.7991 1.276 1.0703.426.214.78.3853 1.05.5137.269.1142.553.1998.837.2426.255.0285.51.0428.765.0285.979-.0428 1.929-.4709 2.837-1.2415.978-.8562 1.843-1.8409 2.567-2.9397.468-.685.822-1.4556 1.035-2.2548.142-.2568.213-.5565.184-.8562 0-.4709-.141-.9133-.411-1.2844zm-26.421-2.3546c-2.637 2.7685-5.828 3.7817-6.523 3.1395-.738-.685 1.475-4.0243 3.971-6.1363 3.616-3.0682 5.332-3.5391 5.899-3.7532.766.0428-.368 3.6105-3.347 6.75zm2.425 16.7251c-.737 1.9979-1.616 3.9529-2.595 5.8509-.978 1.898-2.099 3.7104-3.347 5.4228-1.219 1.6554-2.354 2.8541-3.446 3.5962.043-1.6126.468-3.325 1.262-5.1231.823-1.8552 1.773-3.639 2.851-5.3515 1.106-1.7695 2.255-3.4535 3.446-5.066 1.191-1.6126 2.212-3.0254 3.077-4.2527-.113 1.3415-.524 2.9826-1.248 4.9234z"/><path d="m131.704 21.8627c.298.4852.652.9276 1.064 1.3271.397.3996.822.5994 1.262.5709.723-.0286 1.361-.4139 1.929-1.1417.567-.6992.836-1.5983.78-2.4973l-.029-.5138c-.056-1.2415-.269-2.0978-.61-2.5829-.297-.4567-.822-.7136-1.361-.6708-.369.0428-.723.1427-1.078.2712-.496.1855-.95.4281-1.375.742-.44.314-.837.6993-1.149 1.1417-.312.3996-.468.899-.44 1.3985.284.685.624 1.3272 1.007 1.9551z"/><path d="m25.8223 7.77778c1.56 0 2.4109-2.426 1.9855-2.71141-.4255-.28541-17.4437-1.71246-21.98184-.85623-4.53818.85623-1.41818 3.13952-1.41818 3.13952s-2.55272 20.40694-3.40363 25.97244c-.709092 4.6236-1.701818 13.4143-.283638 15.4122 1.418178 1.9979 10.820688 1.056 14.181788.2854 8.0836-1.8552 10.0691-2.5687 10.4945-2.9968.4255-.4281.1135-1.8267-1.1345-1.5698-1.4182.2854-4.2545.2854-11.0618.4281-.8509.0143-4.39636 0-4.39636-.8562s1.98546-15.6976 1.98546-15.6976c0-.4281 10.0691.1427 11.0618 0s2.2691-2.7114 1.56-3.1395c-.7091-.4282-12.0545-.5709-12.0545-.5709l2.4109-16.2684s10.4945-.57082 12.0545-.57082z"/></g></svg>