<svg height="32" viewBox="0 0 32 32" width="32" xmlns="http://www.w3.org/2000/svg"><path d="m29.7142857 0h-27.43571427c-1.25714286 0-2.27857143 1.03571429-2.27857143 2.30714286v27.38571424c0 1.2714286 1.02142857 2.3071429 2.27857143 2.3071429h27.43571427c1.2571429 0 2.2857143-1.0357143 2.2857143-2.3071429v-27.38571424c0-1.27142857-1.0285714-2.30714286-2.2857143-2.30714286zm-14.1428571 17.1214286-10.98571431-7.0928572c.12857142-1.14285711 1.09285714-2.0285714 2.27142857-2.0285714h18.28571424c1.1785715 0 2.1428572.88571429 2.2714286 2.0285714l-10.9857143 7.0928572c-.1285714.0857143-.2785714.1285714-.4285714.1285714s-.3-.0428571-.4285714-.1285714zm2.1 1.9214285 9.7571428-6.3v8.9714286c0 1.2642857-1.0214285 2.2857143-2.2857143 2.2857143h-18.28571424c-1.26428572 0-2.28571429-1.0214286-2.28571429-2.2857143v-8.9714286l9.75714283 6.3c.5.3214286 1.0785715.4928572 1.6714286.4928572s1.1714286-.1714286 1.6714286-.4928572z" fill="#002d4f"/></svg>