<svg height="23" viewBox="0 0 33 23" width="33" xmlns="http://www.w3.org/2000/svg"><path d="m26.9420443 0h-21.88408856c-2.79873551 0-5.05795574 2.29293994-5.05795574 5.09167545v12.13909375c0 2.7987355 2.29293994 5.0916755 5.05795574 5.0916755h21.88408856c2.7987355 0 5.0579557-2.29294 5.0579557-5.0916755v-12.13909375c0-2.83245522-2.2929399-5.09167545-5.0579557-5.09167545zm-21.91780826 2.59641728h21.88408856c.8767123 0 1.6859852.47207587 2.0906217 1.18018967l-11.093783 6.91253955c-.6069547.3709167-1.2813488.573235-1.9557429.573235s-1.3487882-.2023183-1.9557428-.573235l-11.09378297-6.91253955c.47207587-.7081138 1.24762908-1.18018967 2.12434141-1.18018967zm21.91780826 17.06217072h-21.88408856c-1.3487882 0-2.46153846-1.1127503-2.46153846-2.4615385v-10.55426762l10.04847212 6.30558482c1.0115911.6406744 2.1580611.9441517 3.3382507.9441517 1.1801897 0 2.3266597-.337197 3.3382508-.9441517l10.0821918-6.30558482v10.55426762c0 1.3487882-1.1127502 2.4615385-2.4615384 2.4615385z" fill="#2a3341" transform="translate(.6)"/></svg>