<?xml version="1.0" encoding="UTF-8"?>
<svg width="33px" height="23px" viewBox="0 0 33 23" version="1.1" xmlns="http://www.w3.org/2000/svg" xmlns:xlink="http://www.w3.org/1999/xlink">
    <title>noun-email-1211398</title>
    <g id="Page-1" stroke="none" stroke-width="1" fill="none" fill-rule="evenodd">
        <g id="noun-email-1211398" transform="translate(0.600000, 0.000000)" fill="#2A3341" fill-rule="nonzero">
            <path d="M26.9420443,0 L5.05795574,0 C2.25922023,0 0,2.29293994 0,5.09167545 L0,17.2307692 C0,20.0295047 2.29293994,22.3224447 5.05795574,22.3224447 L26.9420443,22.3224447 C29.7407798,22.3224447 32,20.0295047 32,17.2307692 L32,5.09167545 C32,2.25922023 29.7070601,0 26.9420443,0 Z M5.02423604,2.59641728 L26.9083246,2.59641728 C27.7850369,2.59641728 28.5943098,3.06849315 28.9989463,3.77660695 L17.9051633,10.6891465 C17.2982086,11.0600632 16.6238145,11.2623815 15.9494204,11.2623815 C15.2750263,11.2623815 14.6006322,11.0600632 13.9936776,10.6891465 L2.89989463,3.77660695 C3.3719705,3.06849315 4.14752371,2.59641728 5.02423604,2.59641728 Z M26.9420443,19.658588 L5.05795574,19.658588 C3.70916754,19.658588 2.59641728,18.5458377 2.59641728,17.1970495 L2.59641728,6.64278188 L12.6448894,12.9483667 C13.6564805,13.5890411 14.8029505,13.8925184 15.9831401,13.8925184 C17.1633298,13.8925184 18.3097998,13.5553214 19.3213909,12.9483667 L29.4035827,6.64278188 L29.4035827,17.1970495 C29.4035827,18.5458377 28.2908325,19.658588 26.9420443,19.658588 Z" id="Shape"></path>
        </g>
    </g>
</svg>