<svg height="32" viewBox="0 0 32 32" width="32" xmlns="http://www.w3.org/2000/svg"><path d="m29.7142857 0h-27.43571427c-1.25714286 0-2.27857143 1.03571429-2.27857143 2.30714286v27.38571424c0 1.2714286 1.02142857 2.3071429 2.27857143 2.3071429h27.43571427c1.2571429 0 2.2857143-1.0357143 2.2857143-2.3071429v-27.38571424c0-1.27142857-1.0285714-2.30714286-2.2857143-2.30714286zm-20.04285713 27.4285714h-4.74285714v-15.2714285h4.75v15.2714285zm-2.37142857-17.3571428c-1.52142857 0-2.75-1.23571431-2.75-2.75000003 0-1.51428571 1.22857143-2.75 2.75-2.75 1.51428571 0 2.75 1.23571429 2.75 2.75 0 1.52142857-1.22857143 2.75000003-2.75 2.75000003zm20.15 17.3571428h-4.7428571v-7.4285714c0-1.7714286-.0357143-4.05-2.4642858-4.05-2.4714285 0-2.85 1.9285714-2.85 3.9214286v7.5571428h-4.7428571v-15.2714285h4.55v2.0857142h.0642857c.6357143-1.2 2.1857143-2.4642857 4.4928572-2.4642857 4.8 0 5.6928571 3.1642857 5.6928571 7.2785715z" fill="#002d4f"/></svg>