<svg height="300" viewBox="0 0 416 300" width="416" xmlns="http://www.w3.org/2000/svg"><g fill="#ffab0f" fill-rule="evenodd"><path d="m100.029736.18513231v.02486852c-55.266163.10500041-100.029736 44.88767717-100.029736 100.11927717h90.4356649c.1106264-5.3329162 4.4540938-9.6310252 9.8236211-9.6310252 5.437285 0 9.838831 4.4003463 9.838831 9.8272102 0 5.339823-4.267411 9.661419-9.574711 9.806486 5.015522 50.612963 47.740805 90.148382 99.718599 90.148382v-100.169014c0-55.2979156-44.867285-100.12618469-100.212269-100.12618469"/><path d="m315.306686 0h-.04009c-55.268087 0-100.072839 44.7771504-100.072839 100.012895v199.987105c55.193438 0 100.129517-44.659716 100.251168-99.794604h.073267v-.187896c55.135378-.156119 99.788066-44.865572 99.788066-100.004605h.067738c0-55.2357446-44.80337-100.012895-100.06731-100.012895m-.022106 110c-5.526681 0-10.009716-4.476961-10.009716-10.0021104 0-5.5195217 4.483035-9.9978896 10.009716-9.9978896 5.523865 0 10.008308 4.4783679 10.008308 9.9978896 0 5.5251494-4.484443 10.0021104-10.008308 10.0021104"/></g></svg>