<?xml version="1.0" encoding="UTF-8"?>
<svg width="63px" height="61px" viewBox="0 0 63 61" version="1.1" xmlns="http://www.w3.org/2000/svg" xmlns:xlink="http://www.w3.org/1999/xlink">
    <title>olospo</title>
    <g id="Page-1" stroke="none" stroke-width="1" fill="none" fill-rule="evenodd">
        <g id="olospo" transform="translate(0.680662, 0.876545)" fill="#FFFFFF" fill-rule="nonzero">
            <g id="g10" transform="translate(30.805919, 30.000000) scale(-1, 1) rotate(-180.000000) translate(-30.805919, -30.000000) translate(0.000000, 0.000000)">
                <g id="g14" transform="translate(0.000000, 0.000000)">
                    <g id="g16" transform="translate(0.000000, 0.000000)">
                        <g id="g22" transform="translate(0.000000, 0.000000)">
                            <path d="M30.8059194,11.6134148 C41.5315063,11.6134148 48.5475654,19.3558125 48.5475654,29.9995635 C48.5475654,40.645133 41.5315063,48.3868035 30.8059194,48.3868035 C20.0803325,48.3868035 13.0642733,40.645133 13.0642733,29.9995635 C13.0642733,19.3558125 20.0803325,11.6134148 30.8059194,11.6134148 M30.8059194,59.9994907 C48.6279465,59.9994907 61.6118387,48.3060588 61.6118387,29.9995635 C61.6118387,11.6937957 48.6279465,0 30.8059194,0 C12.9835286,0 0,11.6937957 0,29.9995635 C0,48.3060588 12.9835286,59.9994907 30.8059194,59.9994907" id="path24"></path>
                        </g>
                        <g id="g46" transform="translate(0.000000, 29.995344)">
                            <polygon id="path48" points="14.3932873 13.9371889 0 0 0 30.0046556 30.8059194 30.0042917"></polygon>
                        </g>
                    </g>
                </g>
            </g>
        </g>
    </g>
</svg>