<svg height="61" viewBox="0 0 63 61" width="63" xmlns="http://www.w3.org/2000/svg"><g fill="#fff" transform="matrix(1 0 0 -1 .680662 60.876545)"><path d="m30.8059194 11.6134148c10.7255869 0 17.741646 7.7423977 17.741646 18.3861487 0 10.6455695-7.0160591 18.38724-17.741646 18.38724s-17.7416461-7.7416705-17.7416461-18.38724c0-10.643751 7.0160592-18.3861487 17.7416461-18.3861487m0 48.3860759c17.8220271 0 30.8059193-11.6934319 30.8059193-29.9999272 0-18.3057678-12.9838922-29.9995635-30.8059193-29.9995635-17.8223908 0-30.8059194 11.6937957-30.8059194 29.9995635 0 18.3064953 12.9835286 29.9999272 30.8059194 29.9999272"/><path d="m14.3932873 13.9371889-14.3932873-13.9371889v30.0046556l30.8059194-.0003639z" transform="translate(0 29.995344)"/></g></svg>