<?xml version="1.0" encoding="UTF-8"?>
<svg width="83px" height="60px" viewBox="0 0 83 60" version="1.1" xmlns="http://www.w3.org/2000/svg" xmlns:xlink="http://www.w3.org/1999/xlink">
    <title>logo_white</title>
    <g id="Page-1" stroke="none" stroke-width="1" fill="none" fill-rule="evenodd">
        <g id="logo_white" fill="#FFFFFF">
            <path d="M19.9879342,0.03702646 L19.9879342,0.04200017 C8.94465373,0.06300025 0,9.0195356 0,20.0658555 L18.0708476,20.0658555 C18.092953,18.9992724 18.9608643,18.1396506 20.0338028,18.1396506 C21.1202807,18.1396506 21.9997974,19.0197198 21.9997974,20.1050925 C21.9997974,21.1730573 21.1470835,22.0373765 20.0865793,22.0663897 C21.0887806,32.1889823 29.6261433,40.0960662 40.0123422,40.0960662 L40.0123422,20.0622634 C40.0123422,9.00268027 31.0469647,0.03702646 19.9879342,0.03702646" id="Path"></path>
            <path d="M63.0045578,0 L62.9965471,0 C51.9528821,0 43,8.95543009 43,20.002579 L43,60 C54.0287486,60 63.0078725,51.0680568 63.0321808,40.0410791 L63.0468209,40.0410791 L63.0468209,40.0035 C74.0639679,39.9722762 82.9864647,31.0303856 82.9864647,20.002579 L83,20.002579 C83,8.95543009 74.0473941,0 63.0045578,0 M63.0001407,22 C61.8957996,22 61,21.1046078 61,19.9995779 C61,18.8956736 61.8957996,18 63.0001407,18 C64.1039189,18 65,18.8956736 65,19.9995779 C65,21.1046078 64.1039189,22 63.0001407,22" id="Shape"></path>
        </g>
    </g>
</svg>