<?xml version="1.0" encoding="UTF-8"?>
<svg width="585px" height="106px" viewBox="0 0 585 106" version="1.1" xmlns="http://www.w3.org/2000/svg" xmlns:xlink="http://www.w3.org/1999/xlink">
    <g id="Page-1" stroke="none" stroke-width="1" fill="none" fill-rule="evenodd">
        <g id="logo" transform="translate(0.020000, 0.880000)" fill="#fff" fill-rule="nonzero">
            <path d="M477.61,52.56 C477.61,44.6266667 478.94,37.44 481.6,31 C484.26,24.56 487.97,19.0766667 492.73,14.55 C497.49,10.0233333 503.136667,6.54666667 509.67,4.12 C516.203333,1.69333333 523.343333,0.48 531.09,0.48 C538.836667,0.48 545.976667,1.69333333 552.51,4.12 C559.043333,6.54666667 564.69,10.0233333 569.45,14.55 C574.21,19.0766667 577.92,24.56 580.58,31 C583.24,37.44 584.57,44.6266667 584.57,52.56 C584.57,60.4933333 583.24,67.68 580.58,74.12 C577.92,80.56 574.21,86.0433333 569.45,90.57 C564.69,95.0966667 559.043333,98.5733333 552.51,101 C545.976667,103.426667 538.836667,104.64 531.09,104.64 C523.343333,104.64 516.203333,103.426667 509.67,101 C503.136667,98.5733333 497.49,95.0966667 492.73,90.57 C487.97,86.0433333 484.26,80.56 481.6,74.12 C478.94,67.68 477.61,60.4933333 477.61,52.56 Z M500.29,52.56 C500.29,57.2266667 501.013333,61.4966667 502.46,65.37 C503.906667,69.2433333 505.983333,72.6033333 508.69,75.45 C511.396667,78.2966667 514.64,80.5133333 518.42,82.1 C522.2,83.6866667 526.423333,84.48 531.09,84.48 C535.756667,84.48 539.98,83.6866667 543.76,82.1 C547.54,80.5133333 550.783333,78.2966667 553.49,75.45 C556.196667,72.6033333 558.273333,69.2433333 559.72,65.37 C561.166667,61.4966667 561.89,57.2266667 561.89,52.56 C561.89,47.9866667 561.166667,43.74 559.72,39.82 C558.273333,35.9 556.196667,32.5166667 553.49,29.67 C550.783333,26.8233333 547.54,24.6066667 543.76,23.02 C539.98,21.4333333 535.756667,20.64 531.09,20.64 C526.423333,20.64 522.2,21.4333333 518.42,23.02 C514.64,24.6066667 511.396667,26.8233333 508.69,29.67 C505.983333,32.5166667 503.906667,35.9 502.46,39.82 C501.013333,43.74 500.29,47.9866667 500.29,52.56 Z" id="path6" opacity="0"></path>
            <path d="M390.73,0 L429.734237,0 C435.17209,0 440.313333,0.494350282 445.157966,1.48305085 C450.002599,2.47175141 454.229294,4.17725989 457.838051,6.59957627 C461.446808,9.02189266 464.31404,12.2846045 466.439746,16.3877119 C468.565452,20.4908192 469.628305,25.6567797 469.628305,31.8855932 C469.628305,38.0155367 468.639605,43.1567797 466.662203,47.309322 C464.684802,51.4618644 461.965876,54.7740113 458.505424,57.2457627 C455.044972,59.7175141 450.941864,61.4724576 446.196102,62.5105932 C441.450339,63.5487288 436.309096,64.0677966 430.772373,64.0677966 L413.865593,64.0677966 L413.865593,105 L390.73,105 L390.73,0 Z M412.57,42 L427.13,42 C429.09,42 430.98,41.8133333 432.8,41.44 C434.62,41.0666667 436.253333,40.4366667 437.7,39.55 C439.146667,38.6633333 440.313333,37.45 441.2,35.91 C442.086667,34.37 442.53,32.4333333 442.53,30.1 C442.53,27.58 441.946667,25.55 440.78,24.01 C439.613333,22.47 438.12,21.28 436.3,20.44 C434.48,19.6 432.45,19.0633333 430.21,18.83 C427.97,18.5966667 425.823333,18.48 423.77,18.48 L412.57,18.48 L412.57,42 Z" id="path5" opacity="0"></path>
            <path d="M364.37,27.22 C362.596667,24.98 360.193333,23.3233333 357.16,22.25 C354.126667,21.1766667 351.256667,20.64 348.55,20.64 C346.963333,20.64 345.33,20.8266667 343.65,21.2 C341.97,21.5733333 340.383333,22.1566667 338.89,22.95 C337.396667,23.7433333 336.183333,24.7933333 335.25,26.1 C334.316667,27.4066667 333.85,28.9933333 333.85,30.86 C333.85,33.8466667 334.97,36.1333333 337.21,37.72 C339.45,39.3066667 342.273333,40.66 345.68,41.78 C349.086667,42.9 352.75,44.02 356.67,45.14 C360.59,46.26 364.253333,47.8466667 367.66,49.9 C371.066667,51.9533333 373.89,54.7066667 376.13,58.16 C378.37,61.6133333 379.49,66.2333333 379.49,72.02 C379.49,77.5266667 378.463333,82.3333333 376.41,86.44 C374.356667,90.5466667 371.58,93.9533333 368.08,96.66 C364.58,99.3666667 360.52,101.373333 355.9,102.68 C351.28,103.986667 346.403333,104.64 341.27,104.64 C334.83,104.64 328.856667,103.66 323.35,101.7 C317.843333,99.74 312.71,96.5666667 307.95,92.18 L323.49,75.1 C325.73,78.0866667 328.553333,80.3966667 331.96,82.03 C335.366667,83.6633333 338.89,84.48 342.53,84.48 C344.303333,84.48 346.1,84.27 347.92,83.85 C349.74,83.43 351.373333,82.8 352.82,81.96 C354.266667,81.12 355.433333,80.0466667 356.32,78.74 C357.206667,77.4333333 357.65,75.8933333 357.65,74.12 C357.65,71.1333333 356.506667,68.7766667 354.22,67.05 C351.933333,65.3233333 349.063333,63.8533333 345.61,62.64 C342.156667,61.4266667 338.423333,60.2133333 334.41,59 C330.396667,57.7866667 326.663333,56.1533333 323.21,54.1 C319.756667,52.0466667 316.886667,49.34 314.6,45.98 C312.313333,42.62 311.17,38.1866667 311.17,32.68 C311.17,27.36 312.22,22.6933333 314.32,18.68 C316.42,14.6666667 319.22,11.3066667 322.72,8.6 C326.22,5.89333333 330.256667,3.86333333 334.83,2.51 C339.403333,1.15666667 344.116667,0.48 348.97,0.48 C354.57,0.48 359.983333,1.27333333 365.21,2.86 C370.436667,4.44666667 375.15,7.10666667 379.35,10.84 L364.37,27.22 Z" id="path4" opacity="0"></path>
            <path d="M192.57,52.56 C192.57,44.6266667 193.9,37.44 196.56,31 C199.22,24.56 202.93,19.0766667 207.69,14.55 C212.45,10.0233333 218.096667,6.54666667 224.63,4.12 C231.163333,1.69333333 238.303333,0.48 246.05,0.48 C253.796667,0.48 260.936667,1.69333333 267.47,4.12 C274.003333,6.54666667 279.65,10.0233333 284.41,14.55 C289.17,19.0766667 292.88,24.56 295.54,31 C298.2,37.44 299.53,44.6266667 299.53,52.56 C299.53,60.4933333 298.2,67.68 295.54,74.12 C292.88,80.56 289.17,86.0433333 284.41,90.57 C279.65,95.0966667 274.003333,98.5733333 267.47,101 C260.936667,103.426667 253.796667,104.64 246.05,104.64 C238.303333,104.64 231.163333,103.426667 224.63,101 C218.096667,98.5733333 212.45,95.0966667 207.69,90.57 C202.93,86.0433333 199.22,80.56 196.56,74.12 C193.9,67.68 192.57,60.4933333 192.57,52.56 Z M215.25,52.56 C215.25,57.2266667 215.973333,61.4966667 217.42,65.37 C218.866667,69.2433333 220.943333,72.6033333 223.65,75.45 C226.356667,78.2966667 229.6,80.5133333 233.38,82.1 C237.16,83.6866667 241.383333,84.48 246.05,84.48 C250.716667,84.48 254.94,83.6866667 258.72,82.1 C262.5,80.5133333 265.743333,78.2966667 268.45,75.45 C271.156667,72.6033333 273.233333,69.2433333 274.68,65.37 C276.126667,61.4966667 276.85,57.2266667 276.85,52.56 C276.85,47.9866667 276.126667,43.74 274.68,39.82 C273.233333,35.9 271.156667,32.5166667 268.45,29.67 C265.743333,26.8233333 262.5,24.6066667 258.72,23.02 C254.94,21.4333333 250.716667,20.64 246.05,20.64 C241.383333,20.64 237.16,21.4333333 233.38,23.02 C229.6,24.6066667 226.356667,26.8233333 223.65,29.67 C220.943333,32.5166667 218.866667,35.9 217.42,39.82 C215.973333,43.74 215.25,47.9866667 215.25,52.56 Z" id="path3" opacity="0"></path>
            <polygon id="path2" points="118.55 0 141.685593 0 141.685593 83.6440678 184.545763 83.6440678 184.545763 105 118.55 105" opacity="0"></polygon>
            <path d="M0,52.56 C0,44.6266667 0,29.9881641 0,22.5135547 C0,17.5304818 0,10.1859635 0,0.48 C12.6490104,0.48 21.3754167,0.48 26.1792187,0.48 C33.3849219,0.48 45.7333333,0.48 53.48,0.48 C61.2266667,0.48 68.3666667,1.69333333 74.9,4.12 C81.4333333,6.54666667 87.08,10.0233333 91.84,14.55 C96.6,19.0766667 100.31,24.56 102.97,31 C105.63,37.44 106.96,44.6266667 106.96,52.56 C106.96,60.4933333 105.63,67.68 102.97,74.12 C100.31,80.56 96.6,86.0433333 91.84,90.57 C87.08,95.0966667 81.4333333,98.5733333 74.9,101 C68.3666667,103.426667 61.2266667,104.64 53.48,104.64 C45.7333333,104.64 38.5933333,103.426667 32.06,101 C25.5266667,98.5733333 19.88,95.0966667 15.12,90.57 C10.36,86.0433333 6.65,80.56 3.99,74.12 C1.33,67.68 0,60.4933333 0,52.56 Z M22.68,52.56 C22.68,57.2266667 23.4033333,61.4966667 24.85,65.37 C26.2966667,69.2433333 28.3733333,72.6033333 31.08,75.45 C33.7866667,78.2966667 37.03,80.5133333 40.81,82.1 C44.59,83.6866667 48.8133333,84.48 53.48,84.48 C58.1466667,84.48 62.37,83.6866667 66.15,82.1 C69.93,80.5133333 73.1733333,78.2966667 75.88,75.45 C78.5866667,72.6033333 80.6633333,69.2433333 82.11,65.37 C83.5566667,61.4966667 84.28,57.2266667 84.28,52.56 C84.28,47.9866667 83.5566667,43.74 82.11,39.82 C80.6633333,35.9 78.5866667,32.5166667 75.88,29.67 C73.1733333,26.8233333 69.93,24.6066667 66.15,23.02 C62.37,21.4333333 58.1466667,20.64 53.48,20.64 C48.8133333,20.64 44.59,21.4333333 40.81,23.02 C37.03,24.6066667 33.7866667,26.8233333 31.08,29.67 C28.3733333,32.5166667 26.2966667,35.9 24.85,39.82 C23.4033333,43.74 22.68,47.9866667 22.68,52.56 Z" id="path1" opacity="0"></path>
        </g>
    </g>
</svg>