<svg height="222" viewBox="0 0 1235 222" width="1235" xmlns="http://www.w3.org/2000/svg"><g fill="#fff" transform="matrix(1 0 0 -1 .680662 220.829073)"><path d="m112.930664 42.5733323c39.318666 0 65.038665 28.3826659 65.038665 67.4013317 0 39.025332-25.719999 67.405332-65.038665 67.405332-39.3186658 0-65.0386652-28.38-65.0386652-67.405332 0-39.0186658 25.7199994-67.4013317 65.0386652-67.4013317m0 177.3773287c65.333332 0 112.930664-42.866665 112.930664-109.975997 0-67.1066651-47.597332-109.974664-112.930664-109.974664-65.3346652 0-112.930664 42.8679989-112.930664 109.974664 0 67.109332 47.5959988 109.975997 112.930664 109.975997"/><path d="m-0 219.626661h46.1173322v-177.0546621h85.4373308v-42.5719989h-131.554663z" transform="translate(257.976927 .324)"/><path d="m112.930664 42.5733323c39.317332 0 65.037332 28.3826659 65.037332 67.4013317 0 39.025332-25.72 67.405332-65.037332 67.405332-39.3186658 0-65.0399985-28.38-65.0399985-67.405332 0-39.0186658 25.7213327-67.4013317 65.0399985-67.4013317m0 177.3773287c65.333332 0 112.927997-42.866665 112.927997-109.975997 0-67.1066651-47.594665-109.974664-112.927997-109.974664-65.3346652 0-112.930664 42.8679989-112.930664 109.974664 0 67.109332 47.5959988 109.975997 112.930664 109.975997" transform="translate(404.724657)"/><path d="m119.774664 164.185329c-8.789333 7.838667-22.8093331 13.194667-34.0466661 13.194667-13.0026664 0-31.0399993-5.910667-31.0399993-21.58 0-38.138666 96.3759974-13.601333 96.3759974-86.9146644 0-46.7106655-37.546666-68.8853316-80.7066644-68.8853316-26.9039994 0-50.5519988 7.98533313-70.3573316 26.3133327l32.8133325 36.0666657c9.4586664-12.4159996 24.8333327-19.8066661 40.2053323-19.8066661 15.0786663 0 31.9293322 7.0959998 31.9293322 21.8746661 0 38.4346656-98.15066384 17.7399995-98.15066384 87.5079976 0 44.638666 38.72666574 67.994665 79.81999804 67.994665 23.6493328 0 46.4119988-6.210666 64.1506648-21.877333z" transform="translate(646.260784)"/><path d="m46.1173322 130.943197h30.7439992c16.2626663 0 32.5213326 5.614666 32.5213326 25.125333 0 21.582666-21.8759995 24.538666-39.6159991 24.538666h-23.6493327zm-46.1173322 88.686664h77.7506647c43.4546653 0 79.5226643-13.897333 79.5226643-63.561331 0-49.075999-33.405332-64.1519988-77.4546643-64.1519988h-33.7013325v-91.9165312h-46.1173322z" transform="translate(831.622513)"/><path d="m112.929331 42.5733323c39.318665 0 65.037331 28.3826659 65.037331 67.4013317 0 39.025332-25.718666 67.405332-65.037331 67.405332-39.3199995 0-65.0386655-28.38-65.0386655-67.405332 0-39.0186658 25.718666-67.4013317 65.0386655-67.4013317m0 177.3773287c65.330665 0 112.927997-42.866665 112.927997-109.975997 0-67.1066651-47.597332-109.974664-112.927997-109.974664-65.3359989 0-112.929331 42.8679989-112.929331 109.974664 0 67.109332 47.5933321 109.975997 112.929331 109.975997" transform="translate(1006.639975)"/><path d="m52.7639987 51.0919987-52.7639987-51.0919987v109.993331l112.930664-.001334z" transform="translate(0 109.959197)"/></g></svg>