<?xml version="1.0" encoding="UTF-8"?>
<svg width="1235px" height="222px" viewBox="0 0 1235 222" version="1.1" xmlns="http://www.w3.org/2000/svg" xmlns:xlink="http://www.w3.org/1999/xlink">
    <title>Artboard</title>
    <g id="Artboard" stroke="none" stroke-width="1" fill="none" fill-rule="evenodd">
        <g id="logo" transform="translate(0.680662, 0.876545)" fill="#FFFFFF" fill-rule="nonzero">
            <g id="g10" transform="translate(616.248651, 109.976264) scale(-1, 1) rotate(-180.000000) translate(-616.248651, -109.976264) translate(0.000000, 0.000000)">
                <g id="g14" transform="translate(0.000000, 0.000000)">
                    <g id="g16" transform="translate(0.000000, 0.000000)">
                        <g id="g22" transform="translate(0.000000, 0.000000)">
                            <path d="M112.930664,42.5733323 C152.24933,42.5733323 177.969329,70.9559982 177.969329,109.974664 C177.969329,148.999996 152.24933,177.379996 112.930664,177.379996 C73.6119982,177.379996 47.8919988,148.999996 47.8919988,109.974664 C47.8919988,70.9559982 73.6119982,42.5733323 112.930664,42.5733323 M112.930664,219.950661 C178.263996,219.950661 225.861328,177.083996 225.861328,109.974664 C225.861328,42.8679989 178.263996,0 112.930664,0 C47.5959988,0 0,42.8679989 0,109.974664 C0,177.083996 47.5959988,219.950661 112.930664,219.950661" id="path24"></path>
                        </g>
                        <g id="g26" transform="translate(257.976927, 0.324000)">
                            <polygon id="path28" points="-2.50332976e-15 219.626661 46.1173322 219.626661 46.1173322 42.5719989 131.554663 42.5719989 131.554663 0 -1.49827371e-14 0"></polygon>
                        </g>
                        <g id="g30" transform="translate(404.724657, 0.000000)">
                            <path d="M112.930664,42.5733323 C152.247996,42.5733323 177.967996,70.9559982 177.967996,109.974664 C177.967996,148.999996 152.247996,177.379996 112.930664,177.379996 C73.6119982,177.379996 47.8906655,148.999996 47.8906655,109.974664 C47.8906655,70.9559982 73.6119982,42.5733323 112.930664,42.5733323 M112.930664,219.950661 C178.263996,219.950661 225.858661,177.083996 225.858661,109.974664 C225.858661,42.8679989 178.263996,0 112.930664,0 C47.5959988,0 0,42.8679989 0,109.974664 C0,177.083996 47.5959988,219.950661 112.930664,219.950661" id="path32"></path>
                        </g>
                        <g id="g34" transform="translate(646.260784, 0.000000)">
                            <path d="M119.774664,164.185329 C110.985331,172.023996 96.9653309,177.379996 85.7279979,177.379996 C72.7253315,177.379996 54.6879986,171.469329 54.6879986,155.799996 C54.6879986,117.66133 151.063996,142.198663 151.063996,68.8853316 C151.063996,22.1746661 113.51733,0 70.3573316,0 C43.4533322,0 19.8053328,7.98533313 0,26.3133327 L32.8133325,62.3799984 C42.2719989,49.9639988 57.6466652,42.5733323 73.0186648,42.5733323 C88.0973311,42.5733323 104.947997,49.6693321 104.947997,64.4479984 C104.947997,102.882664 6.79733316,82.1879979 6.79733316,151.955996 C6.79733316,196.594662 45.5239989,219.950661 86.6173312,219.950661 C110.266664,219.950661 133.02933,213.739995 150.767996,198.073328 L119.774664,164.185329 Z" id="path36"></path>
                        </g>
                        <g id="g38" transform="translate(831.622513, 0.000000)">
                            <path d="M46.1173322,130.943197 L76.8613314,130.943197 C93.1239977,130.943197 109.382664,136.557863 109.382664,156.06853 C109.382664,177.651196 87.5066645,180.607196 69.7666649,180.607196 L46.1173322,180.607196 L46.1173322,130.943197 Z M8.44535673e-14,219.629861 L77.7506647,219.629861 C121.20533,219.629861 157.273329,205.732528 157.273329,156.06853 C157.273329,106.992531 123.867997,91.9165312 79.8186647,91.9165312 L46.1173322,91.9165312 L46.1173322,-2.27373675e-13 L8.44535673e-14,-2.27373675e-13 L8.44535673e-14,219.629861 Z" id="path40"></path>
                        </g>
                        <g id="g42" transform="translate(1006.639975, 0.000000)">
                            <path d="M112.929331,42.5733323 C152.247996,42.5733323 177.966662,70.9559982 177.966662,109.974664 C177.966662,148.999996 152.247996,177.379996 112.929331,177.379996 C73.6093315,177.379996 47.8906655,148.999996 47.8906655,109.974664 C47.8906655,70.9559982 73.6093315,42.5733323 112.929331,42.5733323 M112.929331,219.950661 C178.259996,219.950661 225.857328,177.083996 225.857328,109.974664 C225.857328,42.8679989 178.259996,0 112.929331,0 C47.5933321,0 0,42.8679989 0,109.974664 C0,177.083996 47.5933321,219.950661 112.929331,219.950661" id="path44"></path>
                        </g>
                        <g id="g46" transform="translate(0.000000, 109.959197)">
                            <polygon id="path48" points="52.7639987 51.0919987 0 0 0 109.993331 112.930664 109.991997"></polygon>
                        </g>
                    </g>
                </g>
            </g>
        </g>
    </g>
</svg>