<svg height="74" viewBox="0 0 98 74" width="98" xmlns="http://www.w3.org/2000/svg"><g fill="none" transform="translate(.1)"><path d="m92.6-0h-87.3c-2.9 0-5.3 2.4-5.3 5.3v63.1c0 2.9 2.4 5.3 5.3 5.3h87.3c2.9 0 5.3-2.4 5.3-5.3v-63.1c0-2.9-2.4-5.3-5.3-5.3zm-61.3 5.5h35.3c.8 0 1.4.6 1.4 1.4s-.6 1.4-1.4 1.4h-35.3c-.8 0-1.4-.6-1.4-1.4s.6-1.4 1.4-1.4zm-15.3 0c.8 0 1.4.6 1.4 1.4s-.6 1.4-1.4 1.4-1.4-.6-1.4-1.4.6-1.4 1.4-1.4zm-4.7 0c.8 0 1.4.6 1.4 1.4s-.6 1.4-1.4 1.4-1.4-.6-1.4-1.4.7-1.4 1.4-1.4zm-4.6 0c.8 0 1.4.6 1.4 1.4s-.6 1.4-1.4 1.4-1.4-.6-1.4-1.4.6-1.4 1.4-1.4zm88.4 63c0 1.4-1.1 2.5-2.5 2.5h-87.3c-1.4 0-2.5-1.1-2.5-2.5v-54.7h92.4v54.7z" fill="#000"/><g fill="#04879d" transform="translate(17.9 25)"><path d="m30.3882755 7.83832335c1.2406312.19760479 2.4812623.46107785 3.656597.85628743.3917783.13173653.7835565-.06586827.9141493-.39520958l2.6771513-6.52095809c.1958892-.46107784-.0652963-.92215568-.522371-1.05389221-2.2200767-.46107785-4.4401534-.7245509-6.6602302-.7245509-.3917782 0-.7835565.32934132-.7835565.79041916v6.3233533c.0652964.39520958.3917783.72455089.7182601.72455089z" opacity=".499233"/><path d="m47.6265185 5.13772455c-2.0241877-1.31736527-4.178968-2.37125748-6.4643411-3.22754491-.3917783-.13173653-.7835565.06586826-.9794457.46107785l-2.8077441 6.91616766c-.1305927.39520958 0 .79041915.3264819.98802395 1.1100384.5928144 2.2200767 1.251497 3.1995224 1.9760479.3264818.1976048.7182601.1976048.9794456-.0658683l5.8113773-5.86227541c.3917783-.32934131.3264819-.92215569-.0652963-1.18562874z" opacity=".602772"/><path d="m56.441529 13.502994c-1.3059275-1.8443114-2.8077441-3.55688622-4.5054498-5.07185628-.2611855-.26347305-.5876674-.5269461-.9141493-.79041916-.3264818-.26347305-.7182601-.19760479-.9794456.06586827l-6.0725628 6.12574847c-.2611855.2634731-.3264819.7904192 0 1.0538922.2611855.2634731.522371.5269462.7835565.8562875.6529637.7245509 1.1753347 1.51497 1.6977057 2.3053892.1958891.3293413.5876674.4610778.9141493.263473l8.8150105-3.6886227c.3917783-.1976048.522371-.7245509.2611855-1.1197605z" opacity=".798247"/><path d="m61.9917209 25.3592814c-.7182601-2.8982036-1.8282985-5.6646706-3.2648187-8.2335329-.1958892-.3293413-.5876674-.4610778-.9794457-.3293413l-9.1414924 3.8203593c-.3917783.1317365-.5876674.5928143-.3917783.9880239.5876674 1.3173653.9794457 2.7005988 1.3059275 4.0838324.0652964.3293413.3917783.5928143.7182601.5928143h10.969791c.522371 0 .8488529-.4610778.7835565-.9221557z"/><path d="m8.84047188 9.68263473c-.32648187-.32934132-.78355649-.32934132-1.04474199 0-.19588913.19760479-.45707463.46107787-.65296375.65868267-1.30592749 1.4491018-2.41596586 3.0299401-3.33011511 4.6107784-.2611855.3952096-.06529637.9221557.39177825 1.0538922l2.48126224 1.0538922c.32648187.1317366.65296374.0658683.84885287-.1976048.91414924-1.1197604 1.89359486-2.1736526 3.00363321-3.1616766.1958891-.1976048.4570746-.3952096.6529638-.5269461.3264818-.2634731.3917782-.7904192.0652963-1.1197605z" opacity=".197521"/><path d="m27.1887532 6.8502994v-5.79640718c0-.46107785-.3917783-.79041917-.8488529-.79041917-2.1547804.26347306-4.2442644.7245509-6.268452 1.4491018-.3917782.13173653-.5876673.59281437-.4570746.98802395l1.9588913 4.80838324c.1305927.32934131.4570746.5269461.8488528.46107784 1.3059275-.26347305 2.6771514-.39520958 3.9830789-.39520958.4570746 0 .7835565-.32934132.7835565-.7245509z" opacity=".402227"/><path d="m17.2637042 3.75449102c-.1958891-.39520958-.6529637-.59281437-1.044742-.39520958-1.8935948.98802395-3.7218933 2.17365269-5.4195991 3.49101796-.3264819.26347306-.3917782.79041916-.0652964 1.11976048l2.8077442 2.83233532c.2611855.2634731.5876673.2634731.9141492.1317365 1.3059275-.7904191 2.6771514-1.3832335 4.0483752-1.9101796.3917783-.13173653.5876674-.59281438.4570747-.98802396z" opacity=".301479"/><path d="m4.85739303 19.1676647-1.95889125-.7904192c-.39177824-.1317365-.84885287 0-.97944562.3952096-.91414924 2.1736527-1.56711299 4.4131736-1.89359486 6.7185629-.13059275.4610778.2611855.9221557.71826012.9221557h1.37122387c.32648187 0 .58766737-.1976048.71826012-.5269462.58766737-1.9760479 1.43652024-3.8203592 2.41596586-5.5988024.19588913-.3952095 0-.9221556-.39177824-1.1197604z" opacity=".098958"/><path d="m39.4644716 15.8083832c-2.7424477 2.0419162-6.3990447 4.8742515-9.0108997 6.9161677-.5876674-.1976048-1.2406311-.3952096-1.8935949-.3952096-2.9383368 0-5.2890063 2.3712575-5.2890063 5.3353294 0 2.9640718 2.3506695 5.3353293 5.2890063 5.3353293 2.9383369 0 5.2890064-2.3712575 5.2890064-5.3353293 0-.6586827-.1305928-1.3173653-.3917783-1.9101797 2.0241877-2.6347305 4.8319318-6.3892215 6.8561194-9.0898203.522371-.5928144-.2611855-1.3173653-.8488529-.8562875z"/></g></g></svg>