<?xml version="1.0" encoding="UTF-8"?>
<svg width="98px" height="74px" viewBox="0 0 98 74" version="1.1" xmlns="http://www.w3.org/2000/svg" xmlns:xlink="http://www.w3.org/1999/xlink">
    <title>noun-browser-955676</title>
    <g id="Page-1" stroke="none" stroke-width="1" fill="none" fill-rule="evenodd">
        <g id="noun-browser-955676" transform="translate(0.100000, 0.000000)" fill-rule="nonzero">
            <path d="M92.6,-1.13686838e-13 L5.3,-1.13686838e-13 C2.4,-1.13686838e-13 0,2.4 0,5.3 L0,68.4 C0,71.3 2.4,73.7 5.3,73.7 L92.6,73.7 C95.5,73.7 97.9,71.3 97.9,68.4 L97.9,5.3 C97.9,2.4 95.5,-1.13686838e-13 92.6,-1.13686838e-13 Z M31.3,5.5 L66.6,5.5 C67.4,5.5 68,6.1 68,6.9 C68,7.7 67.4,8.3 66.6,8.3 L31.3,8.3 C30.5,8.3 29.9,7.7 29.9,6.9 C29.9,6.1 30.5,5.5 31.3,5.5 Z M16,5.5 C16.8,5.5 17.4,6.1 17.4,6.9 C17.4,7.7 16.8,8.3 16,8.3 C15.2,8.3 14.6,7.7 14.6,6.9 C14.6,6.1 15.2,5.5 16,5.5 Z M11.3,5.5 C12.1,5.5 12.7,6.1 12.7,6.9 C12.7,7.7 12.1,8.3 11.3,8.3 C10.5,8.3 9.9,7.7 9.9,6.9 C9.9,6.1 10.6,5.5 11.3,5.5 Z M6.7,5.5 C7.5,5.5 8.1,6.1 8.1,6.9 C8.1,7.7 7.5,8.3 6.7,8.3 C5.9,8.3 5.3,7.7 5.3,6.9 C5.3,6.1 5.9,5.5 6.7,5.5 Z M95.1,68.5 C95.1,69.9 94,71 92.6,71 L5.3,71 C3.9,71 2.8,69.9 2.8,68.5 L2.8,13.8 L95.2,13.8 L95.2,68.5 L95.1,68.5 Z" id="Shape" fill="#000000"></path>
            <g id="Path" transform="translate(17.900000, 25.000000)" fill="#04879D">
                <path d="M30.3882755,7.83832335 C31.6289067,8.03592814 32.8695378,8.2994012 34.0448725,8.69461078 C34.4366508,8.82634731 34.828429,8.62874251 34.9590218,8.2994012 L37.6361731,1.77844311 C37.8320623,1.31736527 37.5708768,0.856287425 37.1138021,0.724550898 C34.8937254,0.263473054 32.6736487,0 30.4535719,0 C30.0617937,0 29.6700154,0.329341317 29.6700154,0.790419162 L29.6700154,7.11377246 C29.7353118,7.50898204 30.0617937,7.83832335 30.3882755,7.83832335 Z" opacity="0.499232701"></path>
                <path d="M47.6265185,5.13772455 C45.6023308,3.82035928 43.4475505,2.76646707 41.1621774,1.91017964 C40.7703991,1.77844311 40.3786209,1.9760479 40.1827317,2.37125749 L37.3749876,9.28742515 C37.2443949,9.68263473 37.3749876,10.0778443 37.7014695,10.2754491 C38.8115079,10.8682635 39.9215462,11.5269461 40.9009919,12.251497 C41.2274737,12.4491018 41.619252,12.4491018 41.8804375,12.1856287 L47.6918148,6.32335329 C48.0835931,5.99401198 48.0182967,5.4011976 47.6265185,5.13772455 Z" opacity="0.602771577"></path>
                <path d="M56.441529,13.502994 C55.1356015,11.6586826 53.6337849,9.94610778 51.9360792,8.43113772 C51.6748937,8.16766467 51.3484118,7.90419162 51.0219299,7.64071856 C50.6954481,7.37724551 50.3036698,7.44311377 50.0424843,7.70658683 L43.9699215,13.8323353 C43.708736,14.0958084 43.6434396,14.6227545 43.9699215,14.8862275 C44.231107,15.1497006 44.4922925,15.4131737 44.753478,15.742515 C45.4064417,16.4670659 45.9288127,17.257485 46.4511837,18.0479042 C46.6470728,18.3772455 47.0388511,18.508982 47.365333,18.3113772 L56.1803435,14.6227545 C56.5721218,14.4251497 56.7027145,13.8982036 56.441529,13.502994 Z" opacity="0.798246838"></path>
                <path d="M61.9917209,25.3592814 C61.2734608,22.4610778 60.1634224,19.6946108 58.7269022,17.1257485 C58.531013,16.7964072 58.1392348,16.6646707 57.7474565,16.7964072 L48.6059641,20.6167665 C48.2141858,20.748503 48.0182967,21.2095808 48.2141858,21.6047904 C48.8018532,22.9221557 49.1936315,24.3053892 49.5201133,25.6886228 C49.5854097,26.0179641 49.9118916,26.2814371 50.2383734,26.2814371 L61.2081644,26.2814371 C61.7305354,26.2814371 62.0570173,25.8203593 61.9917209,25.3592814 Z"></path>
                <path d="M8.84047188,9.68263473 C8.51399001,9.35329341 8.05691539,9.35329341 7.79572989,9.68263473 C7.59984076,9.88023952 7.33865526,10.1437126 7.14276614,10.3413174 C5.83683865,11.7904192 4.72680028,13.3712575 3.81265103,14.9520958 C3.55146553,15.3473054 3.74735466,15.8742515 4.20442928,16.005988 L6.68569152,17.0598802 C7.01217339,17.1916168 7.33865526,17.1257485 7.53454439,16.8622754 C8.44869363,15.742515 9.42813925,14.6886228 10.5381776,13.7005988 C10.7340667,13.502994 10.9952522,13.3053892 11.1911414,13.1736527 C11.5176232,12.9101796 11.5829196,12.3832335 11.2564377,12.0538922 L8.84047188,9.68263473 Z" opacity="0.197521391"></path>
                <path d="M27.1887532,6.8502994 L27.1887532,1.05389222 C27.1887532,0.592814371 26.7969749,0.263473054 26.3399003,0.263473054 C24.1851199,0.526946108 22.0956359,0.988023952 20.0714483,1.71257485 C19.6796701,1.84431138 19.483781,2.30538922 19.6143737,2.7005988 L21.573265,7.50898204 C21.7038577,7.83832335 22.0303396,8.03592814 22.4221178,7.97005988 C23.7280453,7.70658683 25.0992692,7.5748503 26.4051967,7.5748503 C26.8622713,7.5748503 27.1887532,7.24550898 27.1887532,6.8502994 Z" opacity="0.402227493"></path>
                <path d="M17.2637042,3.75449102 C17.0678151,3.35928144 16.6107405,3.16167665 16.2189622,3.35928144 C14.3253674,4.34730539 12.4970689,5.53293413 10.7993631,6.8502994 C10.4728812,7.11377246 10.4075849,7.64071856 10.7340667,7.97005988 L13.5418109,10.8023952 C13.8029964,11.0658683 14.1294782,11.0658683 14.4559601,10.9341317 C15.7618876,10.1437126 17.1331115,9.5508982 18.5043353,9.0239521 C18.8961136,8.89221557 19.0920027,8.43113772 18.96141,8.03592814 L17.2637042,3.75449102 Z" opacity="0.301478795"></path>
                <path d="M4.85739303,19.1676647 L2.89850178,18.3772455 C2.50672354,18.245509 2.04964891,18.3772455 1.91905616,18.7724551 C1.00490692,20.9461078 0.35194317,23.1856287 0.0254612968,25.491018 C-0.105131453,25.9520958 0.286646796,26.4131737 0.743721419,26.4131737 L2.11494529,26.4131737 C2.44142716,26.4131737 2.70261266,26.2155689 2.83320541,25.8862275 C3.42087278,23.9101796 4.26972565,22.0658683 5.24917127,20.2874251 C5.4450604,19.8922156 5.24917127,19.3652695 4.85739303,19.1676647 Z" opacity="0.0989583333"></path>
                <path d="M39.4644716,15.8083832 C36.7220239,17.8502994 33.0654269,20.6826347 30.4535719,22.7245509 C29.8659045,22.5269461 29.2129408,22.3293413 28.559977,22.3293413 C25.6216402,22.3293413 23.2709707,24.7005988 23.2709707,27.6646707 C23.2709707,30.6287425 25.6216402,33 28.559977,33 C31.4983139,33 33.8489834,30.6287425 33.8489834,27.6646707 C33.8489834,27.005988 33.7183906,26.3473054 33.4572051,25.754491 C35.4813928,23.1197605 38.2891369,19.3652695 40.3133245,16.6646707 C40.8356955,16.0718563 40.052139,15.3473054 39.4644716,15.8083832 Z"></path>
            </g>
        </g>
    </g>
</svg>