<svg height="30" viewBox="0 0 69 30" width="69" xmlns="http://www.w3.org/2000/svg"><path d="m11.8779417 0c-6.5263416 0-11.8779417 5.3516001-11.8779417 11.8779417s5.3516001 11.8779416 11.8779417 11.8779416c2.2189561 0 4.3073854-.6091252 6.0912521-1.6968488l8.0056457 7.5270473c.6091252.5656163 1.6098309.5656163 2.1754472-.0870179l.3045626-.3480715c.5656163-.6091252.5656163-1.6098309-.0870179-2.1754472l-7.6575741-7.1789757c1.8708846-2.0884293 3.045626-4.8730018 3.045626-7.9186278 0-6.5263416-5.3516-11.8779417-11.8779416-11.8779417zm0 3.43720657c4.655457 0 8.4407351 3.74176917 8.4407351 8.44073513 0 4.6989659-3.7417692 8.4407351-8.4407351 8.4407351-4.69896596 0-8.44073513-3.7417692-8.44073513-8.4407351 0-4.65545702 3.78527811-8.44073513 8.44073513-8.44073513z" fill="#fff" transform="translate(40.1 -.2)"/></svg>